<?xml version="1.0" encoding="UTF-8"?>
<svg version="1.1" xmlns="http://www.w3.org/2000/svg" width="323" height="349">
<path d="M0 0 C99.66 0 199.32 0 302 0 C302 103.29 302 206.58 302 313 C202.34 313 102.68 313 0 313 C0 209.71 0 106.42 0 0 Z " fill="#FCFDFD" transform="translate(21,36)"/>
<path d="M0 0 C0 0.66 0 1.32 0 2 C0.69867188 2.20496094 1.39734375 2.40992187 2.1171875 2.62109375 C3.48230469 3.02521484 3.48230469 3.02521484 4.875 3.4375 C5.77992188 3.70433594 6.68484375 3.97117187 7.6171875 4.24609375 C10 5 10 5 12 6 C12 6.66 12 7.32 12 8 C12.680625 8.185625 13.36125 8.37125 14.0625 8.5625 C18.53665576 10.75198048 22.74434347 14.48868694 25 19 C28.00921995 19.353105 28.00921995 19.353105 29.54296875 17.4609375 C30.08566406 16.77257812 30.62835938 16.08421875 31.1875 15.375 C39.33484582 5.79385627 50.21361071 -0.40380282 62.85546875 -1.5859375 C77.06298481 -2.31259089 90.15094501 0.78473029 101.10546875 10.2890625 C101.73066406 10.85367188 102.35585938 11.41828125 103 12 C103.81855469 12.61488281 104.63710938 13.22976562 105.48046875 13.86328125 C112.86317239 20.12427178 117.85065807 29.42215056 119 39 C119.28720315 45.00241463 119.17833701 50.99598723 119 57 C116.525 57.495 116.525 57.495 114 58 C113.95101562 56.97261719 113.90203125 55.94523437 113.8515625 54.88671875 C113.42751605 46.78576678 112.73451699 38.94846619 111 31 C110.34 31 109.68 31 109 31 C108.67 29.35 108.34 27.7 108 26 C107.34 26 106.68 26 106 26 C105.61585938 25.10410156 105.23171875 24.20820312 104.8359375 23.28515625 C100.3229402 15.20977172 90.28241549 9.75115046 81.74609375 6.8203125 C68.54467818 3.92949157 55.62211717 4.77142904 44 12 C37.47948719 16.76532767 32.85729693 21.92828895 29 29 C26.875 29 26.875 29 24 28 C22.34054954 26.13589882 20.94838386 24.15176499 19.50390625 22.1171875 C13.55803079 13.74663036 4.61138715 9.20379572 -5 6 C-19.34039922 4.66890901 -31.0898218 5.74018322 -42.9375 14.4375 C-47.55871783 18.28851486 -51.61824654 22.3704009 -54 28 C-54.66 28 -55.32 28 -56 28 C-58.3821248 35.5386118 -58.40267786 42.88793455 -58.4375 50.75 C-58.47037109 52.04421875 -58.50324219 53.3384375 -58.53710938 54.671875 C-58.58008918 62.42386923 -57.65060318 68.31853458 -54.27368164 75.32519531 C-52.92416753 78.15925255 -51.941629 81.00852344 -51 84 C-50.34 84 -49.68 84 -49 84 C-47.59765625 86.01171875 -47.59765625 86.01171875 -46.0625 88.6875 C-45.55847656 89.55761719 -45.05445312 90.42773438 -44.53515625 91.32421875 C-43.77525391 92.64873047 -43.77525391 92.64873047 -43 94 C-40.7157836 97.97128993 -38.28669387 100.79346939 -35 104 C-33.66666667 105.66666667 -32.33333333 107.33333333 -31 109 C-20.53696469 119.69241045 -9.0039143 130.31235688 3.875 138.0625 C5.421875 139.0215625 5.421875 139.0215625 7 140 C7 140.66 7 141.32 7 142 C8.03447266 142.37125 8.03447266 142.37125 9.08984375 142.75 C12.47844755 144.20550767 15.44324474 146.03374871 18.5625 148 C22.84136476 150.73407124 22.84136476 150.73407124 27.33984375 153.0625 C29 154 29 154 30 157 C30.84131913 164.6890179 30.7960406 170.90567891 25.875 177.13671875 C18.83368184 184.13402868 9.36398022 185.75264475 0 188 C-2.25006724 188.5830739 -4.50007363 189.16638274 -6.75 189.75 C-9.68326231 190.50335152 -11.96359755 191 -15 191 C-15 191.66 -15 192.32 -15 193 C-19.29 193.33 -23.58 193.66 -28 194 C-27.67 192.35 -27.34 190.7 -27 189 C-24.69 188.67 -22.38 188.34 -20 188 C-20 187.34 -20 186.68 -20 186 C-18.74896484 185.72736328 -18.74896484 185.72736328 -17.47265625 185.44921875 C-9.95928668 183.79238205 -9.95928668 183.79238205 -2.625 181.5 C2.63568112 179.59949323 8.13585129 178.88136831 13.64453125 178.0390625 C17.60561233 176.81246463 18.67361616 175.32960297 21 172 C21.66 172 22.32 172 23 172 C23.66 167.38 24.32 162.76 25 158 C23.68 157.67 22.36 157.34 21 157 C19.39409285 156.18907006 17.81058994 155.33254423 16.25 154.4375 C15.45078125 153.98246094 14.6515625 153.52742187 13.828125 153.05859375 C13.22484375 152.70925781 12.6215625 152.35992187 12 152 C12 151.34 12 150.68 12 150 C10.02 149.34 8.04 148.68 6 148 C6 147.34 6 146.68 6 146 C4.9171875 145.61134766 4.9171875 145.61134766 3.8125 145.21484375 C-6.23052335 140.87681561 -14.77739035 132.11633358 -23 125 C-23.80050781 124.31292969 -24.60101563 123.62585938 -25.42578125 122.91796875 C-43.19550073 107.55770276 -58.28557627 87.75175235 -65 65 C-65.33 64.01 -65.66 63.02 -66 62 C-66.08239169 60.15389468 -66.10743359 58.30494836 -66.09765625 56.45703125 C-66.09443359 55.38388672 -66.09121094 54.31074219 -66.08789062 53.20507812 C-66.07951172 52.08552734 -66.07113281 50.96597656 -66.0625 49.8125 C-66.05798828 48.68134766 -66.05347656 47.55019531 -66.04882812 46.38476562 C-66.03703498 43.58979073 -66.0205765 40.7949218 -66 38 C-65.34 38 -64.68 38 -64 38 C-63.87625 37.154375 -63.7525 36.30875 -63.625 35.4375 C-62.97229673 31.84763202 -62.04752537 28.49175125 -61 25 C-60.34 25 -59.68 25 -59 25 C-58.7628125 24.113125 -58.525625 23.22625 -58.28125 22.3125 C-54.80236383 13.31830648 -45.36666484 7.14447794 -37 3 C-35.84371094 2.38125 -35.84371094 2.38125 -34.6640625 1.75 C-24.80019715 -2.7307464 -10.4645862 -2.69277009 0 0 Z " fill="#3E4C5B" transform="translate(170,70)"/>
<path d="M0 0 C6.27 0 12.54 0 19 0 C19.06058594 1.43214844 19.12117188 2.86429688 19.18359375 4.33984375 C19.26798104 6.20574041 19.35262993 8.07162524 19.4375 9.9375 C19.47681641 10.88302734 19.51613281 11.82855469 19.55664062 12.80273438 C19.59853516 13.70185547 19.64042969 14.60097656 19.68359375 15.52734375 C19.73858032 16.77632446 19.73858032 16.77632446 19.79467773 18.05053711 C19.79367103 20.00338858 19.79367103 20.00338858 21 21 C22.55948542 21.15686249 24.12542668 21.25076639 25.69140625 21.31640625 C26.54162354 21.35451416 27.39184082 21.39262207 28.26782227 21.43188477 C29.35506592 21.47498779 30.44230957 21.51809082 31.5625 21.5625 C35.006875 21.706875 38.45125 21.85125 42 22 C42 28.93 42 35.86 42 43 C31.605 43.495 31.605 43.495 21 44 C20.67 51.26 20.34 58.52 20 66 C13.07 66 6.14 66 -1 66 C-1.33 58.74 -1.66 51.48 -2 44 C-8.93 43.67 -15.86 43.34 -23 43 C-23 36.07 -23 29.14 -23 22 C-12.5625 21.5625 -12.5625 21.5625 -9.26782227 21.43188477 C-7.99249634 21.3747229 -7.99249634 21.3747229 -6.69140625 21.31640625 C-5.81685791 21.27974854 -4.94230957 21.24309082 -4.04125977 21.20532227 C-2.0072598 21.21818934 -2.0072598 21.21818934 -1 20 C-0.84344973 18.51361008 -0.74933057 17.02050873 -0.68359375 15.52734375 C-0.64169922 14.62822266 -0.59980469 13.72910156 -0.55664062 12.80273438 C-0.51732422 11.85720703 -0.47800781 10.91167969 -0.4375 9.9375 C-0.39431641 8.98810547 -0.35113281 8.03871094 -0.30664062 7.06054688 C-0.20020868 4.70721824 -0.09956846 2.35362901 0 0 Z " fill="#FBFCFE" transform="translate(221,142)"/>
<path d="M0 0 C0.68429077 -0.00095673 1.36858154 -0.00191345 2.0736084 -0.00289917 C3.52286877 -0.0035808 4.97213218 -0.00172773 6.42138672 0.00244141 C8.64687928 0.00778998 10.87217001 0.0024959 13.09765625 -0.00390625 C14.50260461 -0.00324547 15.90755285 -0.0019643 17.3125 0 C18.59962891 0.00112793 19.88675781 0.00225586 21.21289062 0.00341797 C24.15625 0.1328125 24.15625 0.1328125 25.15625 1.1328125 C25.24325342 2.76754132 25.26326063 4.40595305 25.25390625 6.04296875 C25.25068359 7.03232422 25.24746094 8.02167969 25.24414062 9.04101562 C25.23157227 10.60239258 25.23157227 10.60239258 25.21875 12.1953125 C25.21423828 13.24009766 25.20972656 14.28488281 25.20507812 15.36132812 C25.19324913 17.9518791 25.17676689 20.54231809 25.15625 23.1328125 C25.78716553 23.12757568 26.41808105 23.12233887 27.06811523 23.11694336 C29.90998347 23.09623424 32.75183588 23.08317184 35.59375 23.0703125 C37.08358398 23.05774414 37.08358398 23.05774414 38.60351562 23.04492188 C39.54775391 23.04169922 40.49199219 23.03847656 41.46484375 23.03515625 C42.77666626 23.02730103 42.77666626 23.02730103 44.11499023 23.01928711 C46.15625 23.1328125 46.15625 23.1328125 47.15625 24.1328125 C47.2564593 26.41229042 47.28706303 28.69488385 47.2890625 30.9765625 C47.29001923 31.66085327 47.29097595 32.34514404 47.29196167 33.0501709 C47.2926433 34.49943127 47.29079023 35.94869468 47.28662109 37.39794922 C47.28127252 39.62344178 47.2865666 41.84873251 47.29296875 44.07421875 C47.29230797 45.47916711 47.2910268 46.88411535 47.2890625 48.2890625 C47.28793457 49.57619141 47.28680664 50.86332031 47.28564453 52.18945312 C47.15625 55.1328125 47.15625 55.1328125 46.15625 56.1328125 C44.59452255 56.21966853 43.02895656 56.23983469 41.46484375 56.23046875 C40.52060547 56.22724609 39.57636719 56.22402344 38.60351562 56.22070312 C37.61029297 56.21232422 36.61707031 56.20394531 35.59375 56.1953125 C34.59666016 56.19080078 33.59957031 56.18628906 32.57226562 56.18164062 C30.10020151 56.16981257 27.62825482 56.15333099 25.15625 56.1328125 C25.16148682 56.76372803 25.16672363 57.39464355 25.17211914 58.04467773 C25.19282826 60.88654597 25.20589066 63.72839838 25.21875 66.5703125 C25.22712891 67.56353516 25.23550781 68.55675781 25.24414062 69.58007812 C25.24736328 70.52431641 25.25058594 71.46855469 25.25390625 72.44140625 C25.25914307 73.31595459 25.26437988 74.19050293 25.26977539 75.09155273 C25.15625 77.1328125 25.15625 77.1328125 24.15625 78.1328125 C21.87677208 78.2330218 19.59417865 78.26362553 17.3125 78.265625 C16.62820923 78.26658173 15.94391846 78.26753845 15.2388916 78.26852417 C13.78963123 78.2692058 12.34036782 78.26735273 10.89111328 78.26318359 C8.66562072 78.25783502 6.44032999 78.2631291 4.21484375 78.26953125 C2.80989539 78.26887047 1.40494715 78.2675893 0 78.265625 C-1.28712891 78.26449707 -2.57425781 78.26336914 -3.90039062 78.26220703 C-6.84375 78.1328125 -6.84375 78.1328125 -7.84375 77.1328125 C-7.93060603 75.57108505 -7.95077219 74.00551906 -7.94140625 72.44140625 C-7.93818359 71.49716797 -7.93496094 70.55292969 -7.93164062 69.58007812 C-7.92326172 68.58685547 -7.91488281 67.59363281 -7.90625 66.5703125 C-7.90173828 65.57322266 -7.89722656 64.57613281 -7.89257812 63.54882812 C-7.88075007 61.07676401 -7.86426849 58.60481732 -7.84375 56.1328125 C-8.47466553 56.13804932 -9.10558105 56.14328613 -9.75561523 56.14868164 C-12.59748347 56.16939076 -15.43933588 56.18245316 -18.28125 56.1953125 C-19.77108398 56.20788086 -19.77108398 56.20788086 -21.29101562 56.22070312 C-22.23525391 56.22392578 -23.17949219 56.22714844 -24.15234375 56.23046875 C-25.02689209 56.23570557 -25.90144043 56.24094238 -26.80249023 56.24633789 C-28.84375 56.1328125 -28.84375 56.1328125 -29.84375 55.1328125 C-29.9321467 52.7571273 -29.95905305 50.41072576 -29.94140625 48.03515625 C-29.9399913 47.32629776 -29.93857635 46.61743927 -29.93711853 45.88710022 C-29.93150443 43.61479538 -29.91894963 41.34258775 -29.90625 39.0703125 C-29.90123681 37.53320454 -29.89667359 35.99609505 -29.89257812 34.45898438 C-29.8823797 30.68352583 -29.86280732 26.90827846 -29.84375 23.1328125 C-22.58375 23.1328125 -15.32375 23.1328125 -7.84375 23.1328125 C-7.8833366 15.93758468 -7.8833366 15.93758468 -7.93383789 8.74243164 C-7.93633545 7.85160889 -7.93883301 6.96078613 -7.94140625 6.04296875 C-7.94926147 4.66830444 -7.94926147 4.66830444 -7.95727539 3.26586914 C-7.70903633 -1.398356 -3.84578366 0.00337012 0 0 Z M-0.84375 7.1328125 C-0.93462891 9.28103516 -0.93462891 9.28103516 -1.02734375 11.47265625 C-1.11173104 13.33855291 -1.19637993 15.20443774 -1.28125 17.0703125 C-1.32056641 18.01583984 -1.35988281 18.96136719 -1.40039062 19.93554688 C-1.44228516 20.83466797 -1.48417969 21.73378906 -1.52734375 22.66015625 C-1.56400146 23.49281006 -1.60065918 24.32546387 -1.63842773 25.18334961 C-1.84375 27.1328125 -1.84375 27.1328125 -2.84375 28.1328125 C-4.40323542 28.28967499 -5.96917668 28.38357889 -7.53515625 28.44921875 C-8.81048218 28.50638062 -8.81048218 28.50638062 -10.11157227 28.56469727 C-11.19881592 28.60780029 -12.28605957 28.65090332 -13.40625 28.6953125 C-16.850625 28.8396875 -20.295 28.9840625 -23.84375 29.1328125 C-23.84375 36.0628125 -23.84375 42.9928125 -23.84375 50.1328125 C-16.91375 50.4628125 -9.98375 50.7928125 -2.84375 51.1328125 C-2.51375 58.3928125 -2.18375 65.6528125 -1.84375 73.1328125 C5.08625 73.1328125 12.01625 73.1328125 19.15625 73.1328125 C19.48625 65.8728125 19.81625 58.6128125 20.15625 51.1328125 C30.55125 50.6378125 30.55125 50.6378125 41.15625 50.1328125 C41.15625 43.2028125 41.15625 36.2728125 41.15625 29.1328125 C34.29037283 28.84356381 34.29037283 28.84356381 27.42407227 28.56469727 C26.57385498 28.52658936 25.7236377 28.48848145 24.84765625 28.44921875 C23.97310791 28.41256104 23.09855957 28.37590332 22.19750977 28.33813477 C20.15625 28.1328125 20.15625 28.1328125 19.15625 27.1328125 C18.99969973 25.64642258 18.90558057 24.15332123 18.83984375 22.66015625 C18.79794922 21.76103516 18.75605469 20.86191406 18.71289062 19.93554688 C18.67357422 18.99001953 18.63425781 18.04449219 18.59375 17.0703125 C18.55056641 16.12091797 18.50738281 15.17152344 18.46289062 14.19335938 C18.35645868 11.84003074 18.25581846 9.48644151 18.15625 7.1328125 C11.88625 7.1328125 5.61625 7.1328125 -0.84375 7.1328125 Z " fill="#4181FC" transform="translate(221.84375,134.8671875)"/>
<path d="M0 0 C0.04374756 0.82854492 0.04374756 0.82854492 0.08837891 1.67382812 C0.84248277 14.53889329 2.92702266 25.18602831 8 37 C8.68766697 38.99287696 9.36193024 40.99069379 10 43 C10.66 43 11.32 43 12 43 C13.40234375 45.01171875 13.40234375 45.01171875 14.9375 47.6875 C15.44152344 48.55761719 15.94554688 49.42773438 16.46484375 50.32421875 C16.97144531 51.20722656 17.47804688 52.09023437 18 53 C20.2842164 56.97128993 22.71330613 59.79346939 26 63 C27.33333333 64.66666667 28.66666667 66.33333333 30 68 C40.46303531 78.69241045 51.9960857 89.31235688 64.875 97.0625 C66.421875 98.0215625 66.421875 98.0215625 68 99 C68 99.66 68 100.32 68 101 C69.03447266 101.37125 69.03447266 101.37125 70.08984375 101.75 C73.47844755 103.20550767 76.44324474 105.03374871 79.5625 107 C83.84136476 109.73407124 83.84136476 109.73407124 88.33984375 112.0625 C90 113 90 113 91 116 C91.84131913 123.6890179 91.7960406 129.90567891 86.875 136.13671875 C79.83368184 143.13402868 70.36398022 144.75264475 61 147 C58.74993276 147.5830739 56.49992637 148.16638274 54.25 148.75 C51.31673769 149.50335152 49.03640245 150 46 150 C46 150.66 46 151.32 46 152 C41.71 152.33 37.42 152.66 33 153 C33.33 151.35 33.66 149.7 34 148 C36.31 147.67 38.62 147.34 41 147 C41 146.34 41 145.68 41 145 C42.25103516 144.72736328 42.25103516 144.72736328 43.52734375 144.44921875 C51.04071332 142.79238205 51.04071332 142.79238205 58.375 140.5 C63.63568112 138.59949323 69.13585129 137.88136831 74.64453125 137.0390625 C78.60561233 135.81246463 79.67361616 134.32960297 82 131 C82.66 131 83.32 131 84 131 C84.66 126.38 85.32 121.76 86 117 C84.02 116.505 84.02 116.505 82 116 C80.39409285 115.18907006 78.81058994 114.33254423 77.25 113.4375 C76.45078125 112.98246094 75.6515625 112.52742188 74.828125 112.05859375 C74.22484375 111.70925781 73.6215625 111.35992187 73 111 C73 110.34 73 109.68 73 109 C71.02 108.34 69.04 107.68 67 107 C67 106.34 67 105.68 67 105 C66.278125 104.74089844 65.55625 104.48179687 64.8125 104.21484375 C54.76947665 99.87681561 46.22260965 91.11633358 38 84 C37.19949219 83.31292969 36.39898437 82.62585938 35.57421875 81.91796875 C17.28845599 66.11163145 -2.2826719 42.85170816 -4.1640625 17.81689453 C-4.28137711 15.50139751 -4.3440415 13.19320198 -4.375 10.875 C-4.38901855 10.13999268 -4.40303711 9.40498535 -4.41748047 8.64770508 C-4.37069492 3.50549307 -4.37069492 3.50549307 -2.5390625 1.0078125 C-1 0 -1 0 0 0 Z " fill="#3C4B5B" transform="translate(109,111)"/>
<path d="M0 0 C-0.3856646 7.11484687 -1.39099399 13.35441866 -4 20 C-4.66 20 -5.32 20 -6 20 C-6.66 22.64 -7.32 25.28 -8 28 C-8.66 28 -9.32 28 -10 28 C-10.99 31.3 -11.98 34.6 -13 38 C-13.66 38 -14.32 38 -15 38 C-15.99 41.3 -16.98 44.6 -18 48 C-18.66 48 -19.32 48 -20 48 C-20 49.98 -20 51.96 -20 54 C-14.39 54.33 -8.78 54.66 -3 55 C-0.77777778 62.77777778 -0.77777778 62.77777778 -0.5 66 C-0.21920875 68.6274038 0.21030439 70.68348927 1 73.25 C1.91123298 76.66712367 2.22547496 79.55326922 2.4375 83.0625 C2.83324071 88.61675559 3.93826896 92.40042608 7.4375 96.8125 C10.8311478 99.39167233 14.9270053 99.1638384 19.04296875 99.28125 C20.19861328 99.31863281 21.35425781 99.35601562 22.54492188 99.39453125 C24.98501625 99.46518278 27.42512056 99.53549204 29.86523438 99.60546875 C31.01701172 99.64285156 32.16878906 99.68023437 33.35546875 99.71875 C34.41403076 99.74904297 35.47259277 99.77933594 36.56323242 99.81054688 C39 100 39 100 40 101 C40.09268999 102.35094982 40.11747326 103.70667091 40.11352539 105.06079102 C40.11341209 106.35201622 40.11341209 106.35201622 40.11329651 107.66932678 C40.10813522 108.60473801 40.10297394 109.54014923 40.09765625 110.50390625 C40.0962413 111.45692123 40.09482635 112.40993622 40.09336853 113.39183044 C40.08775152 116.44875165 40.07519616 119.50560077 40.0625 122.5625 C40.05748719 124.62955624 40.05292391 126.69661362 40.04882812 128.76367188 C40.03777656 133.84247588 40.02050055 138.9212257 40 144 C44.95 143.01 44.95 143.01 50 142 C50.495 144.475 50.495 144.475 51 147 C49.65104264 147.51388852 48.29543517 148.01032722 46.9375 148.5 C45.80634766 148.91765625 45.80634766 148.91765625 44.65234375 149.34375 C42 150 42 150 35 150 C35 135.15 35 120.3 35 105 C26.71332077 105.11825219 26.71332077 105.11825219 18.42724609 105.27026367 C7.30851262 105.35031029 7.30851262 105.35031029 3 102 C-1.8933919 97.03304278 -3.15898471 91.5930056 -4.25 84.875 C-4.41274414 83.95372314 -4.57548828 83.03244629 -4.74316406 82.08325195 C-5.93753677 75.07581578 -6.73623551 68.10845289 -7 61 C-8.02480469 61.08121094 -9.04960938 61.16242188 -10.10546875 61.24609375 C-20.63133384 61.83765361 -20.63133384 61.83765361 -24.14453125 59.6875 C-26.58356346 56.53854775 -27.03733945 54.79657499 -26.84765625 50.75 C-25.84992088 46.33605549 -24.14647874 42.97494734 -21.9375 39.0625 C-21.12109039 37.56451282 -20.30601803 36.06579617 -19.4921875 34.56640625 C-19.07807617 33.8098877 -18.66396484 33.05336914 -18.23730469 32.27392578 C-10.97050227 19.24904156 -10.97050227 19.24904156 -7 5 C-6.5 2 -6.5 2 -6 0 C-3.50907189 -1.24546405 -2.58919267 -0.7767578 0 0 Z " fill="#3B4A5B" transform="translate(85,120)"/>
<path d="M0 0 C2.0625 0.4375 2.0625 0.4375 4 1 C4.33 2.32 4.66 3.64 5 5 C6.32 5 7.64 5 9 5 C9.495 5.99 9.495 5.99 10 7 C10.95261719 6.96519531 11.90523437 6.93039062 12.88671875 6.89453125 C14.14097656 6.86746094 15.39523438 6.84039062 16.6875 6.8125 C17.92886719 6.77769531 19.17023438 6.74289062 20.44921875 6.70703125 C26.22499868 7.18358075 26.22499868 7.18358075 29 10 C29.76308476 13.38884499 29.7908691 16.72415276 29.8125 20.1875 C29.83763672 21.12787109 29.86277344 22.06824219 29.88867188 23.03710938 C29.94759024 25.35849279 29.9838331 27.67798924 30 30 C27.2291017 30.02696009 24.4584655 30.04681952 21.6875 30.0625 C20.90181641 30.07087891 20.11613281 30.07925781 19.30664062 30.08789062 C18.54931641 30.09111328 17.79199219 30.09433594 17.01171875 30.09765625 C15.96697388 30.10551147 15.96697388 30.10551147 14.90112305 30.11352539 C13 30 13 30 10 29 C9.67 29.66 9.34 30.32 9 31 C6.69 31 4.38 31 2 31 C1.67 30.01 1.34 29.02 1 28 C0.34 28 -0.32 28 -1 28 C-2.50156874 24.99686252 -2.09281204 22.20932478 -2.0625 18.875 C-2.05347656 17.59367187 -2.04445313 16.31234375 -2.03515625 14.9921875 C-2.02355469 14.00476563 -2.01195313 13.01734375 -2 12 C-2.66 13.98 -3.32 15.96 -4 18 C-4.66 18 -5.32 18 -6 18 C-6.33 21.63 -6.66 25.26 -7 29 C-8.65 29 -10.3 29 -12 29 C-12.06058594 27.85660156 -12.12117188 26.71320313 -12.18359375 25.53515625 C-12.26798428 24.04425695 -12.35263302 22.55337225 -12.4375 21.0625 C-12.47681641 20.30775391 -12.51613281 19.55300781 -12.55664062 18.77539062 C-12.44038024 15.08055813 -12.44038024 15.08055813 -14 12 C-16.95817107 11.74994614 -16.95817107 11.74994614 -20 12 C-22.84614024 14.84614024 -22.45579076 17.80369142 -22.625 21.625 C-22.66367188 22.33140625 -22.70234375 23.0378125 -22.7421875 23.765625 C-22.83647724 25.50998524 -22.91932891 27.25495691 -23 29 C-24.32 29 -25.64 29 -27 29 C-27 21.74 -27 14.48 -27 7 C-25.68 7 -24.36 7 -23 7 C-22.67 7.66 -22.34 8.32 -22 9 C-21.484375 8.649375 -20.96875 8.29875 -20.4375 7.9375 C-16.9530245 6.59731711 -14.61273271 7.19024957 -11 8 C-7.5625 9.5625 -7.5625 9.5625 -5 11 C-5 9.68 -5 8.36 -5 7 C-3.68 7 -2.36 7 -1 7 C-1.020625 6.030625 -1.04125 5.06125 -1.0625 4.0625 C-1 1 -1 1 0 0 Z " fill="#EEF4FB" transform="translate(126,306)"/>
<path d="M0 0 C1.70893433 -0.01353516 1.70893433 -0.01353516 3.45239258 -0.02734375 C13.6660531 0.00815373 22.87067105 1.3430363 32.3125 5.25 C33.81069079 5.81730116 35.31067048 6.37990305 36.8125 6.9375 C37.9675 7.370625 39.1225 7.80375 40.3125 8.25 C40.3125 8.91 40.3125 9.57 40.3125 10.25 C41.17875 10.4975 42.045 10.745 42.9375 11 C46.58909164 12.35244135 49.31753068 13.75419223 52.3125 16.25 C52.6875 19 52.6875 19 52.3125 21.25 C48.33188041 21.53975047 46.51641719 21.05104496 43.375 18.625 C33.53345164 11.66832762 21.41221677 6.91427185 9.32421875 6.984375 C8.58097855 6.98246155 7.83773834 6.9805481 7.07197571 6.97857666 C5.50802266 6.97722345 3.94405804 6.98085913 2.38012695 6.98925781 C0.01682585 6.99992406 -2.34570727 6.98935692 -4.70898438 6.9765625 C-21.74780901 6.96016249 -34.48582495 9.93427853 -47.6875 21.25 C-52.94851556 26.71036211 -56.53196455 31.97506787 -58.6875 39.25 C-59.3475 39.25 -60.0075 39.25 -60.6875 39.25 C-60.80867188 40.17941406 -60.92984375 41.10882813 -61.0546875 42.06640625 C-62.71913445 54.34490334 -62.71913445 54.34490334 -64.6875 60.25 C-66.0075 60.25 -67.3275 60.25 -68.6875 60.25 C-68.57246731 57.7283624 -68.44575223 55.2081881 -68.3125 52.6875 C-68.26609375 51.63079102 -68.26609375 51.63079102 -68.21875 50.55273438 C-67.95797442 45.83704259 -67.14091877 41.74614504 -65.6875 37.25 C-65.0275 37.25 -64.3675 37.25 -63.6875 37.25 C-63.61273438 36.693125 -63.53796875 36.13625 -63.4609375 35.5625 C-62.39146964 29.35539241 -60.1895216 24.73978785 -55.6875 20.25 C-55.0275 20.25 -54.3675 20.25 -53.6875 20.25 C-53.419375 19.610625 -53.15125 18.97125 -52.875 18.3125 C-51.6875 16.25 -51.6875 16.25 -48.6875 15.25 C-48.6875 14.59 -48.6875 13.93 -48.6875 13.25 C-42.90595835 8.36780927 -35.41868196 4.25 -27.6875 4.25 C-27.6875 3.59 -27.6875 2.93 -27.6875 2.25 C-18.4634698 0.3404041 -9.39101203 0.03071258 0 0 Z " fill="#3D4C5D" transform="translate(150.6875,52.75)"/>
<path d="M0 0 C5.80067568 4.77702703 5.80067568 4.77702703 7.125 8.75 C7.62427255 14.41482316 7.89414072 19.17318627 4.125 23.75 C1.22275503 27.01502559 -0.71404252 28.55954273 -5.1796875 28.953125 C-11.81652407 29.07416153 -15.09752761 28.21886434 -20.125 23.75 C-23.43586954 19.9661491 -23.14937303 15.97108028 -23.09375 11.1875 C-22.63924609 6.12302781 -19.57265509 2.98544821 -15.875 -0.25 C-10.69063992 -1.97812003 -5.04805129 -2.19480491 0 0 Z " fill="#FEFEFE" transform="translate(23.875,2.25)"/>
<path d="M0 0 C2.64 0 5.28 0 8 0 C8 3.96 8 7.92 8 12 C11.3 12 14.6 12 18 12 C18 8.37 18 4.74 18 1 C20.64 1 23.28 1 26 1 C26 11.23 26 21.46 26 32 C23.69 32 21.38 32 19 32 C18 31 18 31 17.90234375 28.27734375 C17.91394531 27.17519531 17.92554688 26.07304687 17.9375 24.9375 C17.94652344 23.83277344 17.95554688 22.72804688 17.96484375 21.58984375 C17.97644531 20.73519531 17.98804688 19.88054687 18 19 C14.7 19 11.4 19 8 19 C8 23.29 8 27.58 8 32 C5.66705225 32.04241723 3.33297433 32.04092937 1 32 C0 31 0 31 -0.11352539 28.04077148 C-0.10828857 26.74727783 -0.10305176 25.45378418 -0.09765625 24.12109375 C-0.0962413 23.4344313 -0.09482635 22.74776886 -0.09336853 22.04029846 C-0.08775479 19.83932199 -0.07520007 17.63844591 -0.0625 15.4375 C-0.05748676 13.94856917 -0.05292355 12.45963676 -0.04882812 10.97070312 C-0.03778093 7.31376925 -0.02050713 3.65689442 0 0 Z " fill="#687481" transform="translate(180,304)"/>
<path d="M0 0 C-0.3856646 7.11484687 -1.39099399 13.35441866 -4 20 C-4.66 20 -5.32 20 -6 20 C-6.66 22.64 -7.32 25.28 -8 28 C-8.66 28 -9.32 28 -10 28 C-10.99 31.3 -11.98 34.6 -13 38 C-13.66 38 -14.32 38 -15 38 C-15.99 41.3 -16.98 44.6 -18 48 C-18.66 48 -19.32 48 -20 48 C-20 49.98 -20 51.96 -20 54 C-14.39 54.33 -8.78 54.66 -3 55 C-3 55.33 -3 55.66 -3 56 C-3.99902344 56.04898438 -4.99804688 56.09796875 -6.02734375 56.1484375 C-7.31769531 56.22320312 -8.60804687 56.29796875 -9.9375 56.375 C-11.86916016 56.47941406 -11.86916016 56.47941406 -13.83984375 56.5859375 C-15.40412109 56.79089844 -15.40412109 56.79089844 -17 57 C-17.33 57.66 -17.66 58.32 -18 59 C-17.14535156 59.04898438 -16.29070312 59.09796875 -15.41015625 59.1484375 C-14.30542969 59.22320312 -13.20070313 59.29796875 -12.0625 59.375 C-10.40927734 59.47941406 -10.40927734 59.47941406 -8.72265625 59.5859375 C-7.82417969 59.72257812 -6.92570312 59.85921875 -6 60 C-4.61773984 62.76452033 -4.90474613 65.0461363 -4.9375 68.125 C-4.94652344 69.22070312 -4.95554687 70.31640625 -4.96484375 71.4453125 C-4.97644531 72.28835937 -4.98804687 73.13140625 -5 74 C-5.33 74 -5.66 74 -6 74 C-6.495 67.565 -6.495 67.565 -7 61 C-8.02480469 61.08121094 -9.04960938 61.16242188 -10.10546875 61.24609375 C-20.63133384 61.83765361 -20.63133384 61.83765361 -24.14453125 59.6875 C-26.58356346 56.53854775 -27.03733945 54.79657499 -26.84765625 50.75 C-25.84992088 46.33605549 -24.14647874 42.97494734 -21.9375 39.0625 C-21.12109039 37.56451282 -20.30601803 36.06579617 -19.4921875 34.56640625 C-19.07807617 33.8098877 -18.66396484 33.05336914 -18.23730469 32.27392578 C-10.97050227 19.24904156 -10.97050227 19.24904156 -7 5 C-6.5 2 -6.5 2 -6 0 C-3.50907189 -1.24546405 -2.58919267 -0.7767578 0 0 Z " fill="#4E5B6A" transform="translate(85,120)"/>
<path d="M0 0 C1.65 0 3.3 0 5 0 C5.50615298 1.26839526 6.00469099 2.53983102 6.5 3.8125 C6.7784375 4.52019531 7.056875 5.22789062 7.34375 5.95703125 C8 8 8 8 8 11 C8.66 11 9.32 11 10 11 C11.29243536 15.1196377 12.26252625 18.66831683 12 23 C12.66 23 13.32 23 14 23 C14.17015625 22.09378906 14.3403125 21.18757813 14.515625 20.25390625 C15.94921821 13.04781272 17.5961741 6.53119893 21 0 C22.98 0 24.96 0 27 0 C27.62277469 10.00887894 28.17707265 19.96588331 28 30 C27.01 30 26.02 30 25 30 C24.13190561 24.79826905 23.87484652 19.83021184 23.9375 14.5625 C23.94201172 13.83095703 23.94652344 13.09941406 23.95117188 12.34570312 C23.96281852 10.56376581 23.98074809 8.78187137 24 7 C23.34 7 22.68 7 22 7 C21.89816406 7.98097656 21.79632813 8.96195312 21.69140625 9.97265625 C21.06208074 14.37793483 19.56330598 18.31451638 17.9375 22.4375 C17.65583984 23.16904297 17.37417969 23.90058594 17.08398438 24.65429688 C16.39586753 26.43873546 15.69885394 28.21973905 15 30 C13.68 30 12.36 30 11 30 C10.79842285 29.36908447 10.5968457 28.73816895 10.38916016 28.08813477 C9.47555745 25.24368706 8.55044903 22.40311438 7.625 19.5625 C7.30789062 18.56927734 6.99078125 17.57605469 6.6640625 16.55273438 C6.3546875 15.60849609 6.0453125 14.66425781 5.7265625 13.69140625 C5.30238037 12.37958374 5.30238037 12.37958374 4.86962891 11.04125977 C4.18468928 8.82251791 4.18468928 8.82251791 2 8 C2 15.26 2 22.52 2 30 C0.68 30 -0.64 30 -2 30 C-2.1832107 20.02519541 -2.17833805 9.77506317 0 0 Z " fill="#5C93FB" transform="translate(42,305)"/>
<path d="M0 0 C1.98 0 3.96 0 6 0 C6 3.63 6 7.26 6 11 C7.32 10.34 8.64 9.68 10 9 C13.40544204 8.64526645 15.31338246 8.61029815 18.3125 10.3125 C20.34953974 12.34953974 20.94208306 14.0301093 21.11352539 16.90112305 C21.10828857 17.59761963 21.10305176 18.29411621 21.09765625 19.01171875 C21.09443359 19.76904297 21.09121094 20.52636719 21.08789062 21.30664062 C21.07951172 22.09232422 21.07113281 22.87800781 21.0625 23.6875 C21.05798828 24.48478516 21.05347656 25.28207031 21.04882812 26.10351562 C21.0370585 28.06904257 21.01912348 30.03453085 21 32 C18.69 32 16.38 32 14 32 C13.67 26.72 13.34 21.44 13 16 C11.02 16 9.04 16 7 16 C6.67 20.95 6.34 25.9 6 31 C4.02 31 2.04 31 0 31 C0 20.77 0 10.54 0 0 Z " fill="#2B3B4C" transform="translate(288,304)"/>
<path d="M0 0 C1.30066406 -0.00128906 2.60132813 -0.00257813 3.94140625 -0.00390625 C4.96258545 -0.00076416 4.96258545 -0.00076416 6.00439453 0.00244141 C8.08503515 0.0077901 10.16545989 0.0024957 12.24609375 -0.00390625 C14.19708984 -0.00197266 14.19708984 -0.00197266 16.1875 0 C17.39083984 0.00112793 18.59417969 0.00225586 19.83398438 0.00341797 C22.59375 0.1328125 22.59375 0.1328125 23.59375 1.1328125 C23.75061249 2.69229792 23.84451639 4.25823918 23.91015625 5.82421875 C23.95205078 6.76845703 23.99394531 7.71269531 24.03710938 8.68554688 C24.07642578 9.67876953 24.11574219 10.67199219 24.15625 11.6953125 C24.19943359 12.69240234 24.24261719 13.68949219 24.28710938 14.71679688 C24.39355298 17.188654 24.49556928 19.6606156 24.59375 22.1328125 C25.43679687 22.17019531 26.27984375 22.20757812 27.1484375 22.24609375 C28.24414062 22.31183594 29.33984375 22.37757813 30.46875 22.4453125 C31.55929688 22.50332031 32.64984375 22.56132812 33.7734375 22.62109375 C34.70414062 22.78996094 35.63484375 22.95882812 36.59375 23.1328125 C37.25375 24.1228125 37.91375 25.1128125 38.59375 26.1328125 C37.59375 27.1328125 37.59375 27.1328125 35.82788086 27.24633789 C35.07901611 27.24110107 34.33015137 27.23586426 33.55859375 27.23046875 C32.46599243 27.22672241 32.46599243 27.22672241 31.35131836 27.22290039 C30.4206958 27.21379639 29.49007324 27.20469238 28.53125 27.1953125 C24.1071875 27.164375 24.1071875 27.164375 19.59375 27.1328125 C19.59375 19.8728125 19.59375 12.6128125 19.59375 5.1328125 C12.00375 5.1328125 4.41375 5.1328125 -3.40625 5.1328125 C-3.40625 11.4028125 -3.40625 17.6728125 -3.40625 24.1328125 C-4.39625 24.4628125 -5.38625 24.7928125 -6.40625 25.1328125 C-8.09141954 23.44764296 -7.53633019 21.34513462 -7.5390625 19.0390625 C-7.54099609 17.49412109 -7.54099609 17.49412109 -7.54296875 15.91796875 C-7.53910156 14.83386719 -7.53523437 13.74976563 -7.53125 12.6328125 C-7.53511719 11.54871094 -7.53898438 10.46460938 -7.54296875 9.34765625 C-7.54167969 8.31769531 -7.54039062 7.28773438 -7.5390625 6.2265625 C-7.53793457 5.27458984 -7.53680664 4.32261719 -7.53564453 3.34179688 C-7.26556964 -1.26884021 -3.89418595 0.00365015 0 0 Z " fill="#4284FC" transform="translate(222.40625,135.8671875)"/>
<path d="M0 0 C0.68429077 -0.00095673 1.36858154 -0.00191345 2.0736084 -0.00289917 C3.52286877 -0.0035808 4.97213218 -0.00172773 6.42138672 0.00244141 C8.64687928 0.00778998 10.87217001 0.0024959 13.09765625 -0.00390625 C14.50260461 -0.00324547 15.90755285 -0.0019643 17.3125 0 C18.59962891 0.00112793 19.88675781 0.00225586 21.21289062 0.00341797 C24.15625 0.1328125 24.15625 0.1328125 25.15625 1.1328125 C25.24325342 2.76754132 25.26326063 4.40595305 25.25390625 6.04296875 C25.25068359 7.03232422 25.24746094 8.02167969 25.24414062 9.04101562 C25.23157227 10.60239258 25.23157227 10.60239258 25.21875 12.1953125 C25.21423828 13.24009766 25.20972656 14.28488281 25.20507812 15.36132812 C25.19324913 17.9518791 25.17676689 20.54231809 25.15625 23.1328125 C24.82625 23.1328125 24.49625 23.1328125 24.15625 23.1328125 C23.66125 12.7378125 23.66125 12.7378125 23.15625 2.1328125 C13.58625 2.1328125 4.01625 2.1328125 -5.84375 2.1328125 C-5.84375 9.7228125 -5.84375 17.3128125 -5.84375 25.1328125 C-4.85375 25.1328125 -3.86375 25.1328125 -2.84375 25.1328125 C-2.84375 18.8628125 -2.84375 12.5928125 -2.84375 6.1328125 C4.74625 6.1328125 12.33625 6.1328125 20.15625 6.1328125 C20.15625 13.3928125 20.15625 20.6528125 20.15625 28.1328125 C19.49625 27.8028125 18.83625 27.4728125 18.15625 27.1328125 C18.15625 20.5328125 18.15625 13.9328125 18.15625 7.1328125 C11.88625 7.1328125 5.61625 7.1328125 -0.84375 7.1328125 C-0.82054687 8.55335938 -0.79734375 9.97390625 -0.7734375 11.4375 C-0.75468229 13.29426559 -0.73648183 15.15103685 -0.71875 17.0078125 C-0.70199219 17.94496094 -0.68523437 18.88210937 -0.66796875 19.84765625 C-0.66152344 20.74355469 -0.65507812 21.63945312 -0.6484375 22.5625 C-0.63796387 23.38991699 -0.62749023 24.21733398 -0.61669922 25.06982422 C-0.84375 27.1328125 -0.84375 27.1328125 -2.84375 29.1328125 C-4.99853516 29.35986328 -4.99853516 29.35986328 -7.6328125 29.328125 C-8.48053223 29.32312988 -9.32825195 29.31813477 -10.20166016 29.31298828 C-11.81886963 29.28567627 -11.81886963 29.28567627 -13.46875 29.2578125 C-18.604375 29.1959375 -18.604375 29.1959375 -23.84375 29.1328125 C-23.84375 36.0628125 -23.84375 42.9928125 -23.84375 50.1328125 C-16.97762193 50.09322781 -16.97762193 50.09322781 -10.11157227 50.04272461 C-9.26135498 50.04022705 -8.4111377 50.03772949 -7.53515625 50.03515625 C-6.66060791 50.02991943 -5.78605957 50.02468262 -4.88500977 50.01928711 C-2.84375 50.1328125 -2.84375 50.1328125 -1.84375 51.1328125 C-1.75674658 52.76754132 -1.73673937 54.40595305 -1.74609375 56.04296875 C-1.74931641 57.03232422 -1.75253906 58.02167969 -1.75585938 59.04101562 C-1.76423828 60.08193359 -1.77261719 61.12285156 -1.78125 62.1953125 C-1.78576172 63.24009766 -1.79027344 64.28488281 -1.79492188 65.36132812 C-1.80675087 67.9518791 -1.82323311 70.54231809 -1.84375 73.1328125 C-2.17375 73.1328125 -2.50375 73.1328125 -2.84375 73.1328125 C-3.17375 66.2028125 -3.50375 59.2728125 -3.84375 52.1328125 C-10.77375 51.8028125 -17.70375 51.4728125 -24.84375 51.1328125 C-24.84375 43.5428125 -24.84375 35.9528125 -24.84375 28.1328125 C-20.22375 27.8028125 -15.60375 27.4728125 -10.84375 27.1328125 C-10.51375 26.1428125 -10.18375 25.1528125 -9.84375 24.1328125 C-16.11375 24.1328125 -22.38375 24.1328125 -28.84375 24.1328125 C-28.51375 34.0328125 -28.18375 43.9328125 -27.84375 54.1328125 C-21.24375 54.4628125 -14.64375 54.7928125 -7.84375 55.1328125 C-7.84375 55.4628125 -7.84375 55.7928125 -7.84375 56.1328125 C-11.32289941 56.16169064 -14.80201831 56.17956937 -18.28125 56.1953125 C-19.77108398 56.20788086 -19.77108398 56.20788086 -21.29101562 56.22070312 C-22.23525391 56.22392578 -23.17949219 56.22714844 -24.15234375 56.23046875 C-25.02689209 56.23570557 -25.90144043 56.24094238 -26.80249023 56.24633789 C-28.84375 56.1328125 -28.84375 56.1328125 -29.84375 55.1328125 C-29.9321467 52.7571273 -29.95905305 50.41072576 -29.94140625 48.03515625 C-29.9399913 47.32629776 -29.93857635 46.61743927 -29.93711853 45.88710022 C-29.93150443 43.61479538 -29.91894963 41.34258775 -29.90625 39.0703125 C-29.90123681 37.53320454 -29.89667359 35.99609505 -29.89257812 34.45898438 C-29.8823797 30.68352583 -29.86280732 26.90827846 -29.84375 23.1328125 C-22.58375 23.1328125 -15.32375 23.1328125 -7.84375 23.1328125 C-7.8833366 15.93758468 -7.8833366 15.93758468 -7.93383789 8.74243164 C-7.93633545 7.85160889 -7.93883301 6.96078613 -7.94140625 6.04296875 C-7.94926147 4.66830444 -7.94926147 4.66830444 -7.95727539 3.26586914 C-7.70903633 -1.398356 -3.84578366 0.00337012 0 0 Z " fill="#89B1FB" transform="translate(221.84375,134.8671875)"/>
<path d="M0 0 C4.95 0 9.9 0 15 0 C15.28875 2.165625 15.5775 4.33125 15.875 6.5625 C16.41372779 10.37944369 16.97761374 13.92362335 18.0625 17.625 C18.96987001 20.89153204 19.23115583 23.69083626 19.4375 27.0625 C19.83324071 32.61675559 20.93826896 36.40042608 24.4375 40.8125 C27.83134277 43.3918205 31.96133133 43.17514372 36.078125 43.31640625 C37.23828125 43.35830078 38.3984375 43.40019531 39.59375 43.44335938 C41.40359375 43.50233398 41.40359375 43.50233398 43.25 43.5625 C44.47203125 43.60568359 45.6940625 43.64886719 46.953125 43.69335938 C49.9686392 43.79937355 52.98423448 43.90143936 56 44 C56 44.33 56 44.66 56 45 C47.42 45.33 38.84 45.66 30 46 C30 46.99 30 47.98 30 49 C24.09005042 48.19409778 21.30895414 47.61430892 17.48828125 42.90234375 C14.91222545 39.20944616 13.88069561 35.61283723 13.25 31.1875 C13.13422607 30.46699463 13.01845215 29.74648926 12.89916992 29.00415039 C11.65575025 20.71735996 11.28375737 12.36595018 11 4 C6.38 4 1.76 4 -3 4 C-2.34 3.67 -1.68 3.34 -1 3 C-0.67 2.01 -0.34 1.02 0 0 Z " fill="#485565" transform="translate(68,176)"/>
<path d="M0 0 C2.87337181 2.96044368 2.98472091 4.68932522 3.1875 8.8125 C3.0946875 10.3903125 3.0946875 10.3903125 3 12 C-1.29 12 -5.58 12 -10 12 C-10 12.99 -10 13.98 -10 15 C-5.71 15.33 -1.42 15.66 3 16 C3 17.65 3 19.3 3 21 C-1.68092818 22.56030939 -6.12792386 22.81895297 -11 22 C-14.03460187 20.21154643 -15.6209518 18.22912932 -17 15 C-17.4492633 11.59843502 -17.36999732 8.40534574 -17 5 C-16.34 5 -15.68 5 -15 5 C-14.938125 4.38125 -14.87625 3.7625 -14.8125 3.125 C-14 1 -14 1 -12 -0.3125 C-7.82254226 -1.26983407 -4.12631139 -1.21642706 0 0 Z " fill="#55626F" transform="translate(227,314)"/>
<path d="M0 0 C0 0.99 0 1.98 0 3 C0.66 3.33 1.32 3.66 2 4 C2 5.98 2 7.96 2 10 C2.66 10 3.32 10 4 10 C4 11.98 4 13.96 4 16 C3.34 16.33 2.68 16.66 2 17 C1.690625 17.825 1.38125 18.65 1.0625 19.5 C0.5365625 20.7375 0.5365625 20.7375 0 22 C-2.88211302 22.96070434 -4.69850044 23.10581883 -7.6875 23.0625 C-8.89986328 23.04896484 -8.89986328 23.04896484 -10.13671875 23.03515625 C-10.75160156 23.02355469 -11.36648437 23.01195312 -12 23 C-12 22.34 -12 21.68 -12 21 C-12.61875 20.7525 -13.2375 20.505 -13.875 20.25 C-16.44510966 18.73817079 -16.90265287 17.73611664 -18 15 C-18.30078125 12.7109375 -18.30078125 12.7109375 -18.3125 10.375 C-18.32925781 9.59898437 -18.34601563 8.82296875 -18.36328125 8.0234375 C-18.24339844 7.35570312 -18.12351562 6.68796875 -18 6 C-17.01 5.34 -16.02 4.68 -15 4 C-15 5.65 -15 7.3 -15 9 C-11.04 9 -7.08 9 -3 9 C-3.66 7.35 -4.32 5.7 -5 4 C-8.02982306 2.62810173 -8.02982306 2.62810173 -11 2 C-11 1.67 -11 1.34 -11 1 C-7.26562152 0.12132271 -3.83225427 -0.08912219 0 0 Z " fill="#E0EDFB" transform="translate(94,314)"/>
<path d="M0 0 C6.27 0 12.54 0 19 0 C19 0.66 19 1.32 19 2 C19.66 2.33 20.32 2.66 21 3 C15.57364835 4.80878388 9.66885438 4.05200784 4 4 C4 11.59 4 19.18 4 27 C10.86612807 26.96041531 10.86612807 26.96041531 17.73217773 26.90991211 C19.00750366 26.90616577 19.00750366 26.90616577 20.30859375 26.90234375 C21.62041626 26.89448853 21.62041626 26.89448853 22.95874023 26.88647461 C25 27 25 27 26 28 C26.08700342 29.63472882 26.10701063 31.27314055 26.09765625 32.91015625 C26.09443359 33.89951172 26.09121094 34.88886719 26.08789062 35.90820312 C26.07951172 36.94912109 26.07113281 37.99003906 26.0625 39.0625 C26.05798828 40.10728516 26.05347656 41.15207031 26.04882812 42.22851562 C26.03699913 44.8190666 26.02051689 47.40950559 26 50 C25.67 50 25.34 50 25 50 C24.93941406 48.96359375 24.87882812 47.9271875 24.81640625 46.859375 C24.73196629 45.48957127 24.64732003 44.11978025 24.5625 42.75 C24.52318359 42.06808594 24.48386719 41.38617188 24.44335938 40.68359375 C24.2321883 37.33734437 23.87661968 34.23195014 23 31 C22.3387915 31.00523682 21.67758301 31.01047363 20.99633789 31.01586914 C18.01840149 31.03657656 15.04048018 31.04964012 12.0625 31.0625 C10.50112305 31.07506836 10.50112305 31.07506836 8.90820312 31.08789062 C7.91884766 31.09111328 6.92949219 31.09433594 5.91015625 31.09765625 C4.53549194 31.10551147 4.53549194 31.10551147 3.13305664 31.11352539 C1 31 1 31 0 30 C-0.08783542 27.78144736 -0.10694609 25.56011504 -0.09765625 23.33984375 C-0.0962413 22.67537735 -0.09482635 22.01091095 -0.09336853 21.3263092 C-0.08775518 19.19666101 -0.07520054 17.06711661 -0.0625 14.9375 C-0.05748671 13.49674631 -0.05292351 12.05599097 -0.04882812 10.61523438 C-0.03863076 7.07675042 -0.0190583 3.53849187 0 0 Z " fill="#4082FC" transform="translate(193,159)"/>
<path d="M0 0 C3.47914941 -0.02887814 6.95826831 -0.04675687 10.4375 -0.0625 C11.92733398 -0.07506836 11.92733398 -0.07506836 13.44726562 -0.08789062 C14.39150391 -0.09111328 15.33574219 -0.09433594 16.30859375 -0.09765625 C17.62041626 -0.10551147 17.62041626 -0.10551147 18.95874023 -0.11352539 C21 0 21 0 22 1 C22.1002093 3.27947792 22.13081303 5.56207135 22.1328125 7.84375 C22.13424759 8.87018616 22.13424759 8.87018616 22.13571167 9.9173584 C22.1363933 11.36661877 22.13454023 12.81588218 22.13037109 14.26513672 C22.12502252 16.49062928 22.1303166 18.71592001 22.13671875 20.94140625 C22.13605797 22.34635461 22.1347768 23.75130285 22.1328125 25.15625 C22.13168457 26.44337891 22.13055664 27.73050781 22.12939453 29.05664062 C22 32 22 32 21 33 C19.43827255 33.08685603 17.87270656 33.10702219 16.30859375 33.09765625 C15.36435547 33.09443359 14.42011719 33.09121094 13.44726562 33.08789062 C12.45404297 33.07951172 11.46082031 33.07113281 10.4375 33.0625 C9.44041016 33.05798828 8.44332031 33.05347656 7.41601562 33.04882812 C4.94395151 33.03700007 2.47200482 33.02051849 0 33 C0 32.67 0 32.34 0 32 C0.83144531 31.95101562 1.66289062 31.90203125 2.51953125 31.8515625 C3.60621094 31.77679688 4.69289062 31.70203125 5.8125 31.625 C7.43091797 31.52058594 7.43091797 31.52058594 9.08203125 31.4140625 C12.18626186 31.18804267 12.18626186 31.18804267 15 29 C8.4 28.67 1.8 28.34 -5 28 C-5 27.67 -5 27.34 -5 27 C1.93 27 8.86 27 16 27 C16 20.07 16 13.14 16 6 C9.07 6 2.14 6 -5 6 C-5 5.67 -5 5.34 -5 5 C0.94 4.67 6.88 4.34 13 4 C10.41073669 1.41073669 8.97294721 1.62601957 5.375 1.375 C3.87066406 1.26285156 3.87066406 1.26285156 2.3359375 1.1484375 C1.56507813 1.09945312 0.79421875 1.05046875 0 1 C0 0.67 0 0.34 0 0 Z " fill="#5D95FC" transform="translate(247,158)"/>
<path d="M0 0 C0.85207031 -0.03738281 1.70414063 -0.07476562 2.58203125 -0.11328125 C6.27754777 0.49063374 7.74118348 1.46136598 10.1875 4.3125 C10.79207973 7.41967111 10.65996842 10.41235259 10.5 13.5625 C10.47744141 14.40296875 10.45488281 15.2434375 10.43164062 16.109375 C10.37287714 18.17784964 10.28319885 20.24540488 10.1875 22.3125 C4.5775 22.3125 -1.0325 22.3125 -6.8125 22.3125 C-8.16689668 19.60370665 -7.87751451 17.30316732 -7.8125 14.3125 C-7.090625 14.621875 -6.36875 14.93125 -5.625 15.25 C-3.00942691 16.23810539 -0.56131018 16.8412754 2.1875 17.3125 C2.8475 15.6625 3.5075 14.0125 4.1875 12.3125 C3.094375 12.35375 2.00125 12.395 0.875 12.4375 C-2.8125 12.3125 -2.8125 12.3125 -5.8125 10.3125 C-2.1683226 7.8830484 -0.10008728 8.15070425 4.1875 8.3125 C3.8575 7.6525 3.5275 6.9925 3.1875 6.3125 C0.2175 6.3125 -2.7525 6.3125 -5.8125 6.3125 C-6.1425 4.6625 -6.4725 3.0125 -6.8125 1.3125 C-4.39739385 0.10494692 -2.69511951 0.07677252 0 0 Z " fill="#344354" transform="translate(242.8125,312.6875)"/>
<path d="M0 0 C2.23828125 1.44140625 2.23828125 1.44140625 4 4 C4.48297559 7.09937484 4.37703243 10.12304782 4.25 13.25 C4.23195312 14.09046875 4.21390625 14.9309375 4.1953125 15.796875 C4.14830798 17.86507395 4.07656724 19.93268441 4 22 C1.70858714 22.05384521 -0.58318188 22.09272087 -2.875 22.125 C-4.15117187 22.14820313 -5.42734375 22.17140625 -6.7421875 22.1953125 C-10 22 -10 22 -12 20 C-12.33956435 16.99243001 -12.55053953 14.9018021 -12 12 C-9.9375 9.5 -9.9375 9.5 -7 8 C-3.1875 7.75 -3.1875 7.75 0 8 C-0.66 6.68 -1.32 5.36 -2 4 C-4.97 4 -7.94 4 -11 4 C-11 3.01 -11 2.02 -11 1 C-7.37296974 -0.20901009 -3.75982637 -0.78660475 0 0 Z " fill="#4686FA" transform="translate(150,313)"/>
<path d="M0 0 C4.28711079 0.37660013 7.9503362 1.35332981 12.01171875 2.7109375 C13.05875977 3.04351562 13.05875977 3.04351562 14.12695312 3.3828125 C17.49614729 4.47275162 20.7208136 5.61984266 23.82421875 7.3359375 C23.82421875 7.9959375 23.82421875 8.6559375 23.82421875 9.3359375 C24.69046875 9.5834375 25.55671875 9.8309375 26.44921875 10.0859375 C30.10081039 11.43837885 32.82924943 12.84012973 35.82421875 15.3359375 C36.19921875 18.0859375 36.19921875 18.0859375 35.82421875 20.3359375 C31.84359916 20.62568797 30.02813594 20.13698246 26.88671875 17.7109375 C14.78230502 9.15471875 1.93668381 6.09195132 -12.61328125 5.7109375 C-13.82177734 5.67226563 -15.03027344 5.63359375 -16.27539062 5.59375 C-19.24203942 5.49994292 -22.20868961 5.41424504 -25.17578125 5.3359375 C-25.17578125 5.0059375 -25.17578125 4.6759375 -25.17578125 4.3359375 C-24.61592529 4.32135498 -24.05606934 4.30677246 -23.47924805 4.29174805 C-20.93989988 4.21722398 -18.40186047 4.12058169 -15.86328125 4.0234375 C-14.98220703 4.00087891 -14.10113281 3.97832031 -13.19335938 3.95507812 C-12.34580078 3.91962891 -11.49824219 3.88417969 -10.625 3.84765625 C-9.84471436 3.82147217 -9.06442871 3.79528809 -8.26049805 3.76831055 C-4.55027814 2.99880598 -4.037435 0.42708414 0 0 Z " fill="#4A5866" transform="translate(167.17578125,53.6640625)"/>
<path d="M0 0 C-0.33 0.99 -0.66 1.98 -1 3 C0.32 3.66 1.64 4.32 3 5 C-25.45849802 13 -25.45849802 13 -30 13 C-30 13.66 -30 14.32 -30 15 C-36.435 15.495 -36.435 15.495 -43 16 C-42.67 14.35 -42.34 12.7 -42 11 C-38.535 10.505 -38.535 10.505 -35 10 C-35 9.34 -35 8.68 -35 8 C-33.74896484 7.72736328 -33.74896484 7.72736328 -32.47265625 7.44921875 C-24.80877193 5.74495385 -24.80877193 5.74495385 -17.3125 3.4375 C-11.74857207 1.48344028 -5.91684927 0 0 0 Z " fill="#354455" transform="translate(185,248)"/>
<path d="M0 0 C0 1.65 0 3.3 0 5 C1.65 5 3.3 5 5 5 C5 6.65 5 8.3 5 10 C3.35 10 1.7 10 0 10 C0.33 13.63 0.66 17.26 1 21 C2.32 21.33 3.64 21.66 5 22 C5 23.65 5 25.3 5 27 C1.94906814 27.28782376 -0.95539152 27.39946991 -4 27 C-6.0625 25.1875 -6.0625 25.1875 -7 22 C-7.21720689 18.31782614 -7.17415634 14.68308405 -7 11 C-7.99 11 -8.98 11 -10 11 C-10 9.02 -10 7.04 -10 5 C-9.01 5 -8.02 5 -7 5 C-7 3.68 -7 2.36 -7 1 C-4 0 -4 0 0 0 Z " fill="#435161" transform="translate(279,308)"/>
<path d="M0 0 C0.33 1.65 0.66 3.3 1 5 C0.154375 5.13535156 -0.69125 5.27070312 -1.5625 5.41015625 C-9.32022162 6.88236024 -15.04559564 8.60268921 -20 15 C-21.40874217 17.59800639 -22.25894354 20.14721123 -23 23 C-23.20238281 23.680625 -23.40476563 24.36125 -23.61328125 25.0625 C-24.0990463 26.70154396 -24.55310699 28.34993351 -25 30 C-26.32 30 -27.64 30 -29 30 C-29.43879539 22.06917966 -29.14979788 15.99104824 -24.11328125 9.609375 C-16.9461919 1.85440921 -10.40468209 -0.56752811 0 0 Z " fill="#435160" transform="translate(156,92)"/>
<path d="M0 0 C1.65 0.66 3.3 1.32 5 2 C3.46798474 5.44703434 1.34730584 8.06586771 -1 11 C-1.70885894 12.31138904 -2.39456452 13.63777017 -3 15 C-3.66 15 -4.32 15 -5 15 C-7.17742288 22.15186051 -7.42867157 29.05588042 -7.625 36.5 C-7.66367188 37.70398438 -7.70234375 38.90796875 -7.7421875 40.1484375 C-7.83585016 43.09881119 -7.92157524 46.04918856 -8 49 C-8.33 49 -8.66 49 -9 49 C-9.66 42.4 -10.32 35.8 -11 29 C-13.20595109 30.78654061 -13.20595109 30.78654061 -13.22705078 33.15478516 C-13.21657715 34.02409668 -13.20610352 34.8934082 -13.1953125 35.7890625 C-13.18886719 36.73007813 -13.18242188 37.67109375 -13.17578125 38.640625 C-13.15902344 39.62546875 -13.14226562 40.6103125 -13.125 41.625 C-13.11597656 42.61757812 -13.10695313 43.61015625 -13.09765625 44.6328125 C-13.07404116 47.08878134 -13.04110799 49.54427168 -13 52 C-15.26598448 48.60102327 -15.23742654 47.43680827 -15.1953125 43.45703125 C-15.18886719 42.38388672 -15.18242188 41.31074219 -15.17578125 40.20507812 C-15.15064453 38.52575195 -15.15064453 38.52575195 -15.125 36.8125 C-15.11597656 35.68134766 -15.10695313 34.55019531 -15.09765625 33.38476562 C-15.07406862 30.58963172 -15.041153 27.79492155 -15 25 C-14.34 25 -13.68 25 -13 25 C-12.87625 24.154375 -12.7525 23.30875 -12.625 22.4375 C-11.97229673 18.84763202 -11.04752537 15.49175125 -10 12 C-9.34 12 -8.68 12 -8 12 C-7.79375 11.13375 -7.5875 10.2675 -7.375 9.375 C-5.62470564 5.07882294 -3.40607577 3.10989527 0 0 Z " fill="#435160" transform="translate(119,83)"/>
<path d="M0 0 C2.31 0 4.62 0 7 0 C7 10.56 7 21.12 7 32 C4.69 32 2.38 32 0 32 C0 21.44 0 10.88 0 0 Z " fill="#3E4D5C" transform="translate(259,303)"/>
<path d="M0 0 C0.04374756 0.82854492 0.04374756 0.82854492 0.08837891 1.67382812 C0.88169245 15.2078132 2.74784819 27.19033581 9.2109375 39.26171875 C10.33468167 41.73729377 9.70906168 43.44737794 9 46 C8.34 46 7.68 46 7 46 C7 45.34 7 44.68 7 44 C6.01 43.67 5.02 43.34 4 43 C-2.57958403 33.61205693 -4.23604538 22.05906546 -4.375 10.875 C-4.38893799 10.14015381 -4.40287598 9.40530762 -4.41723633 8.64819336 C-4.37106147 3.50599291 -4.37106147 3.50599291 -2.5390625 1.0078125 C-1 0 -1 0 0 0 Z " fill="#394959" transform="translate(109,111)"/>
<path d="M0 0 C-0.66 0.99 -1.32 1.98 -2 3 C-4.46931839 3.25897729 -6.77845788 3.36204492 -9.25 3.375 C-21.21438288 3.79278668 -31.49601324 7.68343877 -41 15 C-42.32 14.34 -43.64 13.68 -45 13 C-42.78378545 7.75345127 -38.92958094 5.56777614 -34 3 C-23.10110714 -1.36491287 -11.51026692 -2.67630025 0 0 Z " fill="#2E3F51" transform="translate(165,71)"/>
<path d="M0 0 C1.32 0 2.64 0 4 0 C4.33 0.66 4.66 1.32 5 2 C5.515625 1.649375 6.03125 1.29875 6.5625 0.9375 C9.96915087 -0.37275033 12.47476024 0.2818956 16 1 C16.66 1.33 17.32 1.66 18 2 C18.90238747 4.70716242 19.11851302 6.23776768 19.09765625 9.01171875 C19.09443359 9.76904297 19.09121094 10.52636719 19.08789062 11.30664062 C19.07951172 12.09232422 19.07113281 12.87800781 19.0625 13.6875 C19.05798828 14.48478516 19.05347656 15.28207031 19.04882812 16.10351562 C19.0370585 18.06904257 19.01912348 20.03453085 19 22 C17.68 22 16.36 22 15 22 C14.93941406 20.85660156 14.87882812 19.71320313 14.81640625 18.53515625 C14.73201572 17.04425695 14.64736698 15.55337225 14.5625 14.0625 C14.52318359 13.30775391 14.48386719 12.55300781 14.44335938 11.77539062 C14.55961976 8.08055813 14.55961976 8.08055813 13 5 C10.04182893 4.74994614 10.04182893 4.74994614 7 5 C4.15385976 7.84614024 4.54420924 10.80369142 4.375 14.625 C4.33632812 15.33140625 4.29765625 16.0378125 4.2578125 16.765625 C4.16352276 18.50998524 4.08067109 20.25495691 4 22 C2.68 22 1.36 22 0 22 C0 14.74 0 7.48 0 0 Z " fill="#80ABFB" transform="translate(99,313)"/>
<path d="M0 0 C0.66 0.33 1.32 0.66 2 1 C2.40729228 3.32156597 2.74438677 5.6568787 3 8 C3.61875 7.62875 4.2375 7.2575 4.875 6.875 C9.50065797 5.57981577 13.4205517 6.84402276 18 8 C17.67 9.65 17.34 11.3 17 13 C14.08517222 13.80967438 12.53886783 14.21845993 9.6875 13.0625 C9.130625 12.711875 8.57375 12.36125 8 12 C7.4465236 14.07553648 7 15.84365964 7 18 C7.80824219 17.91621094 8.61648437 17.83242188 9.44921875 17.74609375 C11.05216797 17.59333984 11.05216797 17.59333984 12.6875 17.4375 C13.74324219 17.33308594 14.79898438 17.22867187 15.88671875 17.12109375 C19 17 19 17 24 18 C24 12.72 24 7.44 24 2 C24.33 2 24.66 2 25 2 C25 7.61 25 13.22 25 19 C21.87477228 19.05378021 18.7504629 19.09356575 15.625 19.125 C14.73554688 19.14175781 13.84609375 19.15851563 12.9296875 19.17578125 C12.07890625 19.18222656 11.228125 19.18867188 10.3515625 19.1953125 C9.17327881 19.21102295 9.17327881 19.21102295 7.97119141 19.22705078 C6 19 6 19 4 17 C3.01 17.33 2.02 17.66 1 18 C1 16.35 1 14.7 1 13 C-0.03060547 13.01740234 -0.03060547 13.01740234 -1.08203125 13.03515625 C-1.98308594 13.04417969 -2.88414062 13.05320312 -3.8125 13.0625 C-5.15248047 13.07990234 -5.15248047 13.07990234 -6.51953125 13.09765625 C-9 13 -9 13 -12 12 C-12 11.01 -12 10.02 -12 9 C-7.71 9 -3.42 9 1 9 C0.67 6.03 0.34 3.06 0 0 Z " fill="#B5BBC1" transform="translate(229,317)"/>
<path d="M0 0 C0.91523438 0.00193359 1.83046875 0.00386719 2.7734375 0.00585938 C3.72734375 0.01810547 4.68125 0.03035156 5.6640625 0.04296875 C6.61023438 0.04361328 7.55640625 0.04425781 8.53125 0.04492188 C12.94020456 0.07278746 16.97153987 0.26497323 21.2890625 1.23046875 C21.2890625 1.89046875 21.2890625 2.55046875 21.2890625 3.23046875 C21.98773438 3.43542969 22.68640625 3.64039062 23.40625 3.8515625 C24.77136719 4.25568359 24.77136719 4.25568359 26.1640625 4.66796875 C27.06898438 4.93480469 27.97390625 5.20164062 28.90625 5.4765625 C31.2890625 6.23046875 31.2890625 6.23046875 33.2890625 7.23046875 C33.2890625 7.89046875 33.2890625 8.55046875 33.2890625 9.23046875 C34.0728125 9.51921875 34.8565625 9.80796875 35.6640625 10.10546875 C38.2890625 11.23046875 38.2890625 11.23046875 40.2890625 13.23046875 C39.9140625 15.85546875 39.9140625 15.85546875 39.2890625 18.23046875 C35.96429606 17.61173419 33.88291636 16.39942128 31.1640625 14.41796875 C20.47581624 7.23491472 10.86931212 6.50454826 -1.7109375 6.23046875 C-1.7109375 5.90046875 -1.7109375 5.57046875 -1.7109375 5.23046875 C3.2390625 4.90046875 8.1890625 4.57046875 13.2890625 4.23046875 C11.5235275 2.05056748 11.5235275 2.05056748 9.31787109 2.00341797 C8.1395874 2.01912842 8.1395874 2.01912842 6.9375 2.03515625 C6.08671875 2.04160156 5.2359375 2.04804687 4.359375 2.0546875 C3.46992188 2.07144531 2.58046875 2.08820313 1.6640625 2.10546875 C0.31828125 2.11900391 0.31828125 2.11900391 -1.0546875 2.1328125 C-3.27370336 2.15641905 -5.49218827 2.18934565 -7.7109375 2.23046875 C-4.5066144 0.09425335 -3.67950792 -0.01816601 0 0 Z " fill="#3B4A5A" transform="translate(148.7109375,68.76953125)"/>
<path d="M0 0 C1.98 0 3.96 0 6 0 C6 10.89 6 21.78 6 33 C4.35 33 2.7 33 1 33 C0 32 0 32 -0.11352539 28.94897461 C-0.11336634 27.60008729 -0.10767612 26.25119386 -0.09765625 24.90234375 C-0.0962413 24.19348526 -0.09482635 23.48462677 -0.09336853 22.75428772 C-0.08775443 20.48198288 -0.07519963 18.20977525 -0.0625 15.9375 C-0.05748681 14.40039204 -0.05292359 12.86328255 -0.04882812 11.32617188 C-0.03778042 7.55074358 -0.02050641 3.77538829 0 0 Z " fill="#B3CDFE" transform="translate(160,303)"/>
<path d="M0 0 C3.1359157 1.77984405 3.84102736 2.52308207 5 6 C5.07973476 7.33525717 5.10771338 8.67412083 5.09765625 10.01171875 C5.09443359 10.76904297 5.09121094 11.52636719 5.08789062 12.30664062 C5.07951172 13.09232422 5.07113281 13.87800781 5.0625 14.6875 C5.05798828 15.48478516 5.05347656 16.28207031 5.04882812 17.10351562 C5.0370585 19.06904257 5.01912348 21.03453085 5 23 C2.69 23 0.38 23 -2 23 C-2.33 17.72 -2.66 12.44 -3 7 C-5.97 6.505 -5.97 6.505 -9 6 C-9.33 4.68 -9.66 3.36 -10 2 C-6.59271925 -0.09678815 -3.96792579 -0.4133256 0 0 Z " fill="#425160" transform="translate(304,313)"/>
<path d="M0 0 C1.32 0 2.64 0 4 0 C3.67 0.66 3.34 1.32 3 2 C3.33 2.33 3.66 2.66 4 3 C4.45459858 5.65463121 4.70243238 8.32189138 5 11 C8.96 11.33 12.92 11.66 17 12 C17 12.99 17 13.98 17 15 C13.04 15 9.08 15 5 15 C5 19.62 5 24.24 5 29 C3.35 29 1.7 29 0 29 C0 19.43 0 9.86 0 0 Z " fill="#2B3D4F" transform="translate(182,306)"/>
<path d="M0 0 C1.12067871 0.01047363 2.24135742 0.02094727 3.39599609 0.03173828 C5.21357422 0.04140625 5.21357422 0.04140625 7.06787109 0.05126953 C8.33888672 0.06802734 9.60990234 0.08478516 10.91943359 0.10205078 C12.19818359 0.11107422 13.47693359 0.12009766 14.79443359 0.12939453 C17.96117939 0.15302696 21.12782944 0.18889892 24.29443359 0.22705078 C23.96443359 4.18705078 23.63443359 8.14705078 23.29443359 12.22705078 C22.96443359 12.22705078 22.63443359 12.22705078 22.29443359 12.22705078 C21.96443359 24.10705078 21.63443359 35.98705078 21.29443359 48.22705078 C20.96443359 48.22705078 20.63443359 48.22705078 20.29443359 48.22705078 C20.29443359 33.70705078 20.29443359 19.18705078 20.29443359 4.22705078 C12.81504058 4.30615081 12.81504058 4.30615081 5.3359375 4.40722656 C4.40700684 4.41222168 3.47807617 4.4172168 2.52099609 4.42236328 C1.09134521 4.43807373 1.09134521 4.43807373 -0.3671875 4.45410156 C-2.70556641 4.22705078 -2.70556641 4.22705078 -4.70556641 2.22705078 C-2.70556641 0.22705078 -2.70556641 0.22705078 0 0 Z " fill="#2A3A4B" transform="translate(100.70556640625,220.77294921875)"/>
<path d="M0 0 C4.95 0 9.9 0 15 0 C16.44302537 9.46985399 17.70782599 17.93771792 16 27.4375 C15.814375 28.48808594 15.62875 29.53867188 15.4375 30.62109375 C15.293125 31.40613281 15.14875 32.19117188 15 33 C13.17932336 29.84274122 12.65252214 27.26748405 12.3671875 23.6484375 C12.24150391 22.12476563 12.24150391 22.12476563 12.11328125 20.5703125 C12.03464844 19.51585937 11.95601562 18.46140625 11.875 17.375 C11.78863281 16.3128125 11.70226562 15.250625 11.61328125 14.15625 C11 6.50483631 11 6.50483631 11 4 C6.38 4 1.76 4 -3 4 C-2.34 3.67 -1.68 3.34 -1 3 C-0.67 2.01 -0.34 1.02 0 0 Z " fill="#2C3D4F" transform="translate(68,176)"/>
<path d="M0 0 C6.6 0 13.2 0 20 0 C20.33 0.66 20.66 1.32 21 2 C22.32 2.66 23.64 3.32 25 4 C18.4 4.33 11.8 4.66 5 5 C4.67 10.61 4.34 16.22 4 22 C2.68 22.33 1.36 22.66 0 23 C0 15.41 0 7.82 0 0 Z " fill="#3E80FC" transform="translate(242,186)"/>
<path d="M0 0 C6.1165931 1.3680253 15.25670896 3.63647851 19 9 C18.6875 12.1875 18.6875 12.1875 18 15 C17.3709375 14.67386719 16.741875 14.34773438 16.09375 14.01171875 C13.4108741 12.64199747 10.70902154 11.31715851 8 10 C6.2365625 9.13375 6.2365625 9.13375 4.4375 8.25 C-2.22006213 5.80012787 -9.99036249 6.23099942 -17 6 C-17 5.67 -17 5.34 -17 5 C-15.86820313 4.93941406 -14.73640625 4.87882812 -13.5703125 4.81640625 C-12.08852855 4.73200083 -10.6067584 4.64735283 -9.125 4.5625 C-8.37863281 4.52318359 -7.63226563 4.48386719 -6.86328125 4.44335938 C-2.80013136 4.28426376 -2.80013136 4.28426376 1 3 C-1.94131891 2.01956036 -3.82501665 1.88378798 -6.88671875 1.90234375 C-7.82451172 1.90556641 -8.76230469 1.90878906 -9.72851562 1.91210938 C-10.70498047 1.92048828 -11.68144531 1.92886719 -12.6875 1.9375 C-13.67556641 1.94201172 -14.66363281 1.94652344 -15.68164062 1.95117188 C-18.12115474 1.96295697 -20.56054689 1.97940989 -23 2 C-16.79352258 -2.13765162 -7.20182713 -0.82121459 0 0 Z " fill="#515E6C" transform="translate(248,69)"/>
<path d="M0 0 C2 3 2 3 2 10 C-2.95 10 -7.9 10 -13 10 C-11.54711014 14.5841963 -11.54711014 14.5841963 -10 16 C-8.15108054 16.23363881 -6.29511969 16.41303635 -4.4375 16.5625 C-3.42558594 16.64628906 -2.41367188 16.73007812 -1.37109375 16.81640625 C-0.19740234 16.90728516 -0.19740234 16.90728516 1 17 C0.67 17.99 0.34 18.98 0 20 C-1.93681161 20.08107583 -3.8745934 20.13922475 -5.8125 20.1875 C-6.89144531 20.22230469 -7.97039062 20.25710938 -9.08203125 20.29296875 C-12 20 -12 20 -13.82421875 18.67578125 C-15.90337081 15.7124715 -16.18051072 12.95249965 -16.25 9.4375 C-16.27578125 8.65246094 -16.3015625 7.86742187 -16.328125 7.05859375 C-16.21984375 6.37925781 -16.1115625 5.69992187 -16 5 C-15.01 4.34 -14.02 3.68 -13 3 C-13 4.65 -13 6.3 -13 8 C-9.04 8 -5.08 8 -1 8 C-1.66 6.35 -2.32 4.7 -3 3 C-6.02982306 1.62810173 -6.02982306 1.62810173 -9 1 C-9 0.67 -9 0.34 -9 0 C-5.67638732 -0.83090317 -3.22353302 -1.33387573 0 0 Z " fill="#4885F9" transform="translate(92,315)"/>
<path d="M0 0 C1.32 0.66 2.64 1.32 4 2 C3.67 2.99 3.34 3.98 3 5 C3.66 5 4.32 5 5 5 C8.24727345 10.26723095 8.37334093 14.39949939 8.1875 20.375 C8.17396484 21.20644531 8.16042969 22.03789063 8.14648438 22.89453125 C8.11139059 24.92997066 8.05759228 26.96507291 8 29 C6.35 29.33 4.7 29.66 3 30 C2.96261719 28.99582031 2.92523438 27.99164063 2.88671875 26.95703125 C2.51694482 18.81900671 1.64015395 11.29231867 -0.4765625 3.37890625 C-0.64929688 2.59386719 -0.82203125 1.80882813 -1 1 C-0.67 0.67 -0.34 0.34 0 0 Z " fill="#3D4C5B" transform="translate(281,98)"/>
<path d="M0 0 C0.99 0 1.98 0 3 0 C3 1.98 3 3.96 3 6 C4.65 6 6.3 6 8 6 C8 6.66 8 7.32 8 8 C6.35 8 4.7 8 3 8 C3.33 12.95 3.66 17.9 4 23 C5.32 23.33 6.64 23.66 8 24 C8 24.99 8 25.98 8 27 C5.03 26.67 2.06 26.34 -1 26 C-1 20.39 -1 14.78 -1 9 C-1.99 9 -2.98 9 -4 9 C-4 8.01 -4 7.02 -4 6 C-2.68 6 -1.36 6 0 6 C0 4.02 0 2.04 0 0 Z " fill="#4283FB" transform="translate(126,308)"/>
<path d="M0 0 C3 1 3 1 3.90722656 2.81005859 C4.14924805 3.58172363 4.39126953 4.35338867 4.640625 5.1484375 C4.90617187 5.98890625 5.17171875 6.829375 5.4453125 7.6953125 C5.71085937 8.57960938 5.97640625 9.46390625 6.25 10.375 C6.53101563 11.2515625 6.81203125 12.128125 7.1015625 13.03125 C9.13183284 19.60450149 9.13183284 19.60450149 8 23 C7.34 23 6.68 23 6 23 C5.67 22.01 5.34 21.02 5 20 C4.443125 20.495 3.88625 20.99 3.3125 21.5 C0.61837017 23.24754367 -0.85375007 23.26218749 -4 23 C-2.68 22.67 -1.36 22.34 0 22 C0 14.74 0 7.48 0 0 Z " fill="#F2F6FB" transform="translate(44,313)"/>
<path d="M0 0 C0.66 0.33 1.32 0.66 2 1 C2.66528738 8.97112847 2.70192425 14.78876475 -2.3515625 21.25390625 C-5.31883844 24.39696867 -7.47135787 25.89809052 -11.8125 26.1875 C-12.534375 26.125625 -13.25625 26.06375 -14 26 C-14.33 25.34 -14.66 24.68 -15 24 C-14.34 24 -13.68 24 -13 24 C-13 23.34 -13 22.68 -13 22 C-10.53963121 19.82081621 -8.10893047 18.06189231 -5.25 16.4375 C-2.69658149 15.13840819 -2.69658149 15.13840819 -2 12 C-1.97072083 9.41924999 -2.065481 6.8562976 -2.16015625 4.27734375 C-2 2 -2 2 0 0 Z " fill="#304052" transform="translate(198,226)"/>
<path d="M0 0 C1.13211914 -0.01836914 1.13211914 -0.01836914 2.28710938 -0.03710938 C6.14983893 -0.04731923 9.16878084 -0.00609668 12.4375 2.1875 C8.78644057 4.62153962 5.85861065 4.55699886 1.625 4.6875 C-3.4391478 4.84619219 -7.76966812 5.45347978 -12.5625 7.1875 C-15.9375 7.3125 -15.9375 7.3125 -18.5625 7.1875 C-18.5625 6.1975 -18.5625 5.2075 -18.5625 4.1875 C-12.82588767 -0.07398344 -6.8531019 0.00588249 0 0 Z " fill="#2F4051" transform="translate(237.5625,69.8125)"/>
<path d="M0 0 C0.12375 0.61875 0.2475 1.2375 0.375 1.875 C0.87197356 4.19120832 0.87197356 4.19120832 3 6 C3 7.32 3 8.64 3 10 C-0.96 10 -4.92 10 -9 10 C-9.33 8.68 -9.66 7.36 -10 6 C-11.28612676 7.05978933 -11.28612676 7.05978933 -11.09765625 9.50390625 C-11.08605469 10.51324219 -11.07445313 11.52257812 -11.0625 12.5625 C-11.05347656 13.57441406 -11.04445313 14.58632813 -11.03515625 15.62890625 C-11.02355469 16.41136719 -11.01195313 17.19382812 -11 18 C-11.66 17.67 -12.32 17.34 -13 17 C-13.8583779 6.27981381 -13.8583779 6.27981381 -11 2.3125 C-6.96533201 -0.79755657 -4.97579492 -0.50601304 0 0 Z " fill="#7EABF9" transform="translate(88,313)"/>
<path d="M0 0 C-0.33 0.66 -0.66 1.32 -1 2 C0.32 2.66 1.64 3.32 3 4 C2.05640625 4.43699219 2.05640625 4.43699219 1.09375 4.8828125 C-4.79969727 7.70527671 -9.93050268 10.87926336 -15 15 C-15 14.01 -15 13.02 -15 12 C-16.32 11.67 -17.64 11.34 -19 11 C-4.95658167 -2.47829083 -4.95658167 -2.47829083 0 0 Z " fill="#425060" transform="translate(220,74)"/>
<path d="M0 0 C0.33 3.63 0.66 7.26 1 11 C2.32 11.33 3.64 11.66 5 12 C5 13.65 5 15.3 5 17 C3.54207116 17.05399736 2.08357288 17.09279177 0.625 17.125 C-0.59316406 17.15980469 -0.59316406 17.15980469 -1.8359375 17.1953125 C-4 17 -4 17 -6 15 C-6.55951911 11.28950488 -6.55896409 7.70998717 -6 4 C-2.37209302 0 -2.37209302 0 0 0 Z " fill="#4F5B68" transform="translate(279,318)"/>
<path d="M0 0 C0.19739706 4.06208241 0.38118364 8.12467055 0.5625 12.1875 C0.61857422 13.33798828 0.67464844 14.48847656 0.73242188 15.67382812 C0.78076172 16.78564453 0.82910156 17.89746094 0.87890625 19.04296875 C0.9260376 20.06414795 0.97316895 21.08532715 1.02172852 22.13745117 C1.00073689 24.90292045 0.64017052 27.31645691 0 30 C-4.1780655 25.8219345 -4.26709657 19.06274232 -4.32226562 13.40039062 C-4.31743164 12.30500977 -4.31743164 12.30500977 -4.3125 11.1875 C-4.32861328 10.43791016 -4.34472656 9.68832031 -4.36132812 8.91601562 C-4.36616321 3.50556046 -4.36616321 3.50556046 -2.54296875 0.98828125 C-1 0 -1 0 0 0 Z " fill="#2F3F51" transform="translate(109,111)"/>
<path d="M0 0 C1.43088528 2.86177057 0.59991697 4.93375773 0 8 C0.99 7.67 1.98 7.34 3 7 C3.33 7.99 3.66 8.98 4 10 C9.61 10.33 15.22 10.66 21 11 C21 11.33 21 11.66 21 12 C20.00097656 12.04898438 19.00195312 12.09796875 17.97265625 12.1484375 C16.68230469 12.22320312 15.39195313 12.29796875 14.0625 12.375 C12.77472656 12.44460937 11.48695312 12.51421875 10.16015625 12.5859375 C9.11730469 12.72257813 8.07445313 12.85921875 7 13 C6.67 13.66 6.34 14.32 6 15 C6.85464844 15.04898438 7.70929688 15.09796875 8.58984375 15.1484375 C10.24693359 15.26058594 10.24693359 15.26058594 11.9375 15.375 C13.59072266 15.47941406 13.59072266 15.47941406 15.27734375 15.5859375 C16.62505859 15.79089844 16.62505859 15.79089844 18 16 C19.38226016 18.76452033 19.09525387 21.0461363 19.0625 24.125 C19.05347656 25.22070312 19.04445313 26.31640625 19.03515625 27.4453125 C19.02355469 28.28835937 19.01195313 29.13140625 19 30 C18.67 30 18.34 30 18 30 C17.505 23.565 17.505 23.565 17 17 C15.46279297 17.12181641 15.46279297 17.12181641 13.89453125 17.24609375 C3.36866616 17.83765361 3.36866616 17.83765361 -0.14453125 15.6875 C-2.66258009 12.43653204 -3.00657292 10.39437494 -2.9375 6.25 C-2 3 -2 3 0 0 Z " fill="#596673" transform="translate(61,164)"/>
<path d="M0 0 C3.3 0 6.6 0 10 0 C10.33 2.97 10.66 5.94 11 9 C13.31 9 15.62 9 18 9 C18 9.33 18 9.66 18 10 C14.7 10.66 11.4 11.32 8 12 C8 8.37 8 4.74 8 1 C6.02 1 4.04 1 2 1 C2 11.23 2 21.46 2 32 C1.34 32 0.68 32 0 32 C0 21.44 0 10.88 0 0 Z " fill="#D8DBDC" transform="translate(286,303)"/>
<path d="M0 0 C0.33 0 0.66 0 1 0 C2.72005735 7.43993062 2.65642737 15.54607684 1 23 C-1.97 23 -4.94 23 -8 23 C-8 22.67 -8 22.34 -8 22 C-5.36 22 -2.72 22 0 22 C0 20.35 0 18.7 0 17 C-1.65 16.67 -3.3 16.34 -5 16 C-5 12.37 -5 8.74 -5 5 C-3.35 5 -1.7 5 0 5 C0 3.35 0 1.7 0 0 Z " fill="#E4E7EA" transform="translate(284,313)"/>
<path d="M0 0 C0 0.66 0 1.32 0 2 C2.97 2.495 2.97 2.495 6 3 C3.90345283 5.09654717 2.45766711 5.76062 -0.25 6.875 C-4.18530329 8.56609964 -7.52583543 10.505728 -11 13 C-12.32 12.34 -13.64 11.68 -15 11 C-13.54983806 7.36671383 -11.77807683 5.88258423 -8.5 3.8125 C-7.7059375 3.30332031 -6.911875 2.79414062 -6.09375 2.26953125 C-2.35076923 0 -2.35076923 0 0 0 Z " fill="#3A495A" transform="translate(135,73)"/>
<path d="M0 0 C0.33 0 0.66 0 1 0 C1.33 7.26 1.66 14.52 2 22 C2.99 22 3.98 22 5 22 C5 16.39 5 10.78 5 5 C5.33 5 5.66 5 6 5 C6.02887814 8.47914941 6.04675687 11.95826831 6.0625 15.4375 C6.07087891 16.43072266 6.07925781 17.42394531 6.08789062 18.44726562 C6.09111328 19.39150391 6.09433594 20.33574219 6.09765625 21.30859375 C6.10289307 22.18314209 6.10812988 23.05769043 6.11352539 23.95874023 C6 26 6 26 5 27 C2.70848583 27.08790975 0.41427476 27.10694038 -1.87890625 27.09765625 C-2.90889992 27.09553383 -2.90889992 27.09553383 -3.95970154 27.09336853 C-6.16067801 27.08775479 -8.36155409 27.07520007 -10.5625 27.0625 C-12.05143083 27.05748676 -13.54036324 27.05292355 -15.02929688 27.04882812 C-18.68623075 27.03778093 -22.34310558 27.02050713 -26 27 C-26 26.67 -26 26.34 -26 26 C-18.74 25.67 -11.48 25.34 -4 25 C-3.67 24.01 -3.34 23.02 -3 22 C-2.01 22 -1.02 22 0 22 C0 14.74 0 7.48 0 0 Z " fill="#649AFB" transform="translate(241,186)"/>
<path d="M0 0 C0.103125 0.639375 0.20625 1.27875 0.3125 1.9375 C0.539375 2.618125 0.76625 3.29875 1 4 C1.99 4.33 2.98 4.66 4 5 C4 12.92 4 20.84 4 29 C3.67 29 3.34 29 3 29 C2.34 22.4 1.68 15.8 1 9 C-1.20595109 10.78654061 -1.20595109 10.78654061 -1.22705078 13.15478516 C-1.21657715 14.02409668 -1.20610352 14.8934082 -1.1953125 15.7890625 C-1.18886719 16.73007813 -1.18242188 17.67109375 -1.17578125 18.640625 C-1.15902344 19.62546875 -1.14226562 20.6103125 -1.125 21.625 C-1.11597656 22.61757812 -1.10695313 23.61015625 -1.09765625 24.6328125 C-1.07404116 27.08878134 -1.04110799 29.54427168 -1 32 C-3.26598448 28.60102327 -3.23742654 27.43680827 -3.1953125 23.45703125 C-3.18886719 22.38388672 -3.18242188 21.31074219 -3.17578125 20.20507812 C-3.15064453 18.52575195 -3.15064453 18.52575195 -3.125 16.8125 C-3.11597656 15.68134766 -3.10695313 14.55019531 -3.09765625 13.38476562 C-3.07406862 10.58963172 -3.041153 7.79492155 -3 5 C-2.34 5 -1.68 5 -1 5 C-0.67 3.35 -0.34 1.7 0 0 Z " fill="#75808C" transform="translate(107,103)"/>
<path d="M0 0 C0.99 0.33 1.98 0.66 3 1 C3 14.53 3 28.06 3 42 C5.64 41.67 8.28 41.34 11 41 C8 43 8 43 1 44 C0.67 29.48 0.34 14.96 0 0 Z " fill="#C2C8CE" transform="translate(124,220)"/>
<path d="M0 0 C-0.99 0.66 -1.98 1.32 -3 2 C-2.34 2.33 -1.68 2.66 -1 3 C-1 3.66 -1 4.32 -1 5 C-0.34 5 0.32 5 1 5 C0.67 6.65 0.34 8.3 0 10 C-8.24444444 10.62222222 -8.24444444 10.62222222 -11.125 8.25 C-12 6 -12 6 -12 3.875 C-11 2 -11 2 -8.8125 0.75 C-5.75967331 -0.06408712 -3.14582965 -0.14631766 0 0 Z " fill="#525F6D" transform="translate(224,313)"/>
<path d="M0 0 C0.99 0 1.98 0 3 0 C3 10.23 3 20.46 3 31 C2.01 31 1.02 31 0 31 C0 20.77 0 10.54 0 0 Z " fill="#4684FC" transform="translate(161,304)"/>
<path d="M0 0 C2.0625 0.4375 2.0625 0.4375 4 1 C4 2.98 4 4.96 4 7 C5.32 7.33 6.64 7.66 8 8 C6.35 8 4.7 8 3 8 C3 6.02 3 4.04 3 2 C2.01 2 1.02 2 0 2 C0 3.98 0 5.96 0 8 C-1.32 8 -2.64 8 -4 8 C-4 8.99 -4 9.98 -4 11 C-3.01 11 -2.02 11 -1 11 C-1 15.95 -1 20.9 -1 26 C-1.33 26 -1.66 26 -2 26 C-2 21.38 -2 16.76 -2 12 C-2.66 13.98 -3.32 15.96 -4 18 C-4.66 18 -5.32 18 -6 18 C-6.33 21.63 -6.66 25.26 -7 29 C-7.33 29 -7.66 29 -8 29 C-8.33 22.73 -8.66 16.46 -9 10 C-7.68 10.33 -6.36 10.66 -5 11 C-5 9.68 -5 8.36 -5 7 C-3.68 7 -2.36 7 -1 7 C-1.020625 6.030625 -1.04125 5.06125 -1.0625 4.0625 C-1 1 -1 1 0 0 Z " fill="#D4E3FC" transform="translate(126,306)"/>
<path d="M0 0 C0.33 0 0.66 0 1 0 C1.33 5.61 1.66 11.22 2 17 C2.99 17 3.98 17 5 17 C5.33 21.62 5.66 26.24 6 31 C4.02 31 2.04 31 0 31 C0 20.77 0 10.54 0 0 Z " fill="#324254" transform="translate(288,304)"/>
<path d="M0 0 C1.65 0 3.3 0 5 0 C4.63495936 5.66442374 3.9445679 10.00703705 1 15 C-0.65 15 -2.3 15 -4 15 C-3.43179252 9.54520815 -2.05362055 5.08940744 0 0 Z " fill="#566270" transform="translate(282,134)"/>
<path d="M0 0 C0.66 0 1.32 0 2 0 C1.58955515 6.57791873 1.13391403 12.74051886 -1 19 C-2.32 19 -3.64 19 -5 19 C-5.14285714 10.42857143 -5.14285714 10.42857143 -4 7 C-3.34 7 -2.68 7 -2 7 C-2.061875 5.824375 -2.061875 5.824375 -2.125 4.625 C-2 2 -2 2 0 0 Z " fill="#364556" transform="translate(87,94)"/>
<path d="M0 0 C0.66 0 1.32 0 2 0 C2.33 6.6 2.66 13.2 3 20 C-1.1146875 20.0309375 -1.1146875 20.0309375 -5.3125 20.0625 C-6.17270752 20.071604 -7.03291504 20.08070801 -7.91918945 20.09008789 C-8.60198975 20.09258545 -9.28479004 20.09508301 -9.98828125 20.09765625 C-11.03302612 20.10551147 -11.03302612 20.10551147 -12.09887695 20.11352539 C-14 20 -14 20 -17 19 C-17.33 19.66 -17.66 20.32 -18 21 C-20.31 21 -22.62 21 -25 21 C-25 20.01 -25 19.02 -25 18 C-23.02 18.33 -21.04 18.66 -19 19 C-19 18.01 -19 17.02 -19 16 C-18.34 16 -17.68 16 -17 16 C-17 14.35 -17 12.7 -17 11 C-16.34 10.67 -15.68 10.34 -15 10 C-14.855625 11.134375 -14.71125 12.26875 -14.5625 13.4375 C-14.38828522 16.80777201 -14.38828522 16.80777201 -13 18 C-10.21697443 18.07252184 -7.44719465 17.99624685 -4.6640625 17.9375 C-2 18 -2 18 1 19 C0.505 9.595 0.505 9.595 0 0 Z " fill="#C3D9FB" transform="translate(153,316)"/>
<path d="M0 0 C3.125 2 3.125 2 5 4 C4.67 5.32 4.34 6.64 4 8 C4 7.34 4 6.68 4 6 C-0.95 6 -5.9 6 -11 6 C-11.33 4.35 -11.66 2.7 -12 1 C-8.30765648 -0.84617176 -4.02982407 -0.48712159 0 0 Z " fill="#3E4D5D" transform="translate(248,313)"/>
<path d="M0 0 C0.33 0 0.66 0 1 0 C1.95377059 9.43459553 2.10226076 17.670132 0 27 C-3.65490048 20.16563324 -4.10551669 11.51798628 -2.0625 4.0625 C-1 1 -1 1 0 0 Z " fill="#304152" transform="translate(83,182)"/>
<path d="M0 0 C2 2 2 2 2.1953125 5.6953125 C2.182009 7.17200108 2.15814835 8.64862358 2.125 10.125 C2.11597656 10.87910156 2.10695313 11.63320313 2.09765625 12.41015625 C2.0740687 14.27357254 2.03819719 16.13682593 2 18 C1.67 18 1.34 18 1 18 C1 13.71 1 9.42 1 5 C0.34 5 -0.32 5 -1 5 C-1 4.34 -1 3.68 -1 3 C-2.98 3 -4.96 3 -7 3 C-7 8.28 -7 13.56 -7 19 C-8.98 19 -10.96 19 -13 19 C-11.68 18.67 -10.36 18.34 -9 18 C-9.05220703 16.42798828 -9.05220703 16.42798828 -9.10546875 14.82421875 C-9.13360937 13.44532853 -9.16090924 12.06642098 -9.1875 10.6875 C-9.21263672 9.99720703 -9.23777344 9.30691406 -9.26367188 8.59570312 C-9.33750433 3.50126383 -9.33750433 3.50126383 -7.6796875 1.0390625 C-5.0850561 -0.56598855 -2.97066924 -0.31602864 0 0 Z " fill="#D8E6FA" transform="translate(112,317)"/>
<path d="M0 0 C0.91523438 0.00193359 1.83046875 0.00386719 2.7734375 0.00585938 C3.72734375 0.01810547 4.68125 0.03035156 5.6640625 0.04296875 C6.61023438 0.04361328 7.55640625 0.04425781 8.53125 0.04492188 C12.94020456 0.07278746 16.97153987 0.26497323 21.2890625 1.23046875 C21.2890625 1.89046875 21.2890625 2.55046875 21.2890625 3.23046875 C20.2990625 3.72546875 20.2990625 3.72546875 19.2890625 4.23046875 C19.9490625 5.55046875 20.6090625 6.87046875 21.2890625 8.23046875 C20.33966797 8.00037109 20.33966797 8.00037109 19.37109375 7.765625 C15.24879401 7.04983911 11.15139743 6.86896712 6.9765625 6.66796875 C6.14060547 6.62478516 5.30464844 6.58160156 4.44335938 6.53710938 C2.39209315 6.43161568 0.3405977 6.3305956 -1.7109375 6.23046875 C-1.7109375 5.90046875 -1.7109375 5.57046875 -1.7109375 5.23046875 C3.2390625 4.90046875 8.1890625 4.57046875 13.2890625 4.23046875 C11.5235275 2.05056748 11.5235275 2.05056748 9.31787109 2.00341797 C8.1395874 2.01912842 8.1395874 2.01912842 6.9375 2.03515625 C6.08671875 2.04160156 5.2359375 2.04804687 4.359375 2.0546875 C3.46992188 2.07144531 2.58046875 2.08820313 1.6640625 2.10546875 C0.31828125 2.11900391 0.31828125 2.11900391 -1.0546875 2.1328125 C-3.27370336 2.15641905 -5.49218827 2.18934565 -7.7109375 2.23046875 C-4.5066144 0.09425335 -3.67950792 -0.01816601 0 0 Z " fill="#5E6A77" transform="translate(148.7109375,68.76953125)"/>
<path d="M0 0 C5.87704123 0.36731508 10.58329532 1.94292522 15 6 C15.5 8.8125 15.5 8.8125 15 11 C10.36735267 11.70191626 7.97557691 9.95707273 4.35546875 7.38671875 C3 6 3 6 3 3 C2.01 2.67 1.02 2.34 0 2 C0 1.34 0 0.68 0 0 Z " fill="#3E4D5D" transform="translate(188,63)"/>
<path d="M0 0 C1.32 0.33 2.64 0.66 4 1 C4.33 1.99 4.66 2.98 5 4 C8.16245541 5.0541518 10.86948218 5.31275672 14.1875 5.5625 C15.81751953 5.68818359 15.81751953 5.68818359 17.48046875 5.81640625 C18.72763672 5.90728516 18.72763672 5.90728516 20 6 C20 6.33 20 6.66 20 7 C15.71 7 11.42 7 7 7 C7 8.32 7 9.64 7 11 C4.69 10.67 2.38 10.34 0 10 C0 6.7 0 3.4 0 0 Z " fill="#324151" transform="translate(210,319)"/>
<path d="M0 0 C0.33 0 0.66 0 1 0 C1 3.3 1 6.6 1 10 C1.99 9.67 2.98 9.34 4 9 C5.85131483 12.92857754 6.22004943 15.98775112 6.125 20.3125 C6.10695313 21.38113281 6.08890625 22.44976562 6.0703125 23.55078125 C6.03550781 24.76314453 6.03550781 24.76314453 6 26 C5.67 26 5.34 26 5 26 C4.67 24.35 4.34 22.7 4 21 C3.67 21 3.34 21 3 21 C2.67 24.3 2.34 27.6 2 31 C0.68 30.67 -0.64 30.34 -2 30 C-1.01 30 -0.02 30 1 30 C0.9278125 29.34257812 0.855625 28.68515625 0.78125 28.0078125 C-0.1306425 18.66091434 -0.09378884 9.37888361 0 0 Z " fill="#D5E3FC" transform="translate(69,305)"/>
<path d="M0 0 C1.98 0.99 1.98 0.99 4 2 C4 7.61 4 13.22 4 19 C2.68 19 1.36 19 0 19 C0 12.73 0 6.46 0 0 Z " fill="#538EFB" transform="translate(114,316)"/>
<path d="M0 0 C4.52451714 1.50817238 5.81241616 4.93094473 8 9 C9.586684 12.75034399 10.49153937 15.12199765 9 19 C8.67 17.35 8.34 15.7 8 14 C7.34 14 6.68 14 6 14 C5.67 12.68 5.34 11.36 5 10 C4.34 10 3.68 10 3 10 C2.34 10.66 1.68 11.32 1 12 C0.67 10.35 0.34 8.7 0 7 C-0.66 7 -1.32 7 -2 7 C-2 5.35 -2 3.7 -2 2 C-1.34 2 -0.68 2 0 2 C0 1.34 0 0.68 0 0 Z " fill="#4B5967" transform="translate(278,89)"/>
<path d="M0 0 C0.33 0.66 0.66 1.32 1 2 C1.66 2 2.32 2 3 2 C1.45730076 6.72065967 -0.07794619 11.41664092 -2 16 C-2.99 15.67 -3.98 15.34 -5 15 C-6.36884358 10.48281619 -5.47075246 7.41225737 -4 3 C-3.34 3 -2.68 3 -2 3 C-2 2.34 -2 1.68 -2 1 C-1.34 0.67 -0.68 0.34 0 0 Z " fill="#394959" transform="translate(113,92)"/>
<path d="M0 0 C0.66 0 1.32 0 2 0 C2.33 7.59 2.66 15.18 3 23 C2.67 23 2.34 23 2 23 C1.34 19.04 0.68 15.08 0 11 C0 13.31 0 15.62 0 18 C-1.65 18.66 -3.3 19.32 -5 20 C-6.33708769 15.98873694 -5.21306194 14.42736898 -3.625 10.5625 C-1.49126702 5.3834691 -1.49126702 5.3834691 0 0 Z " fill="#DBE8FA" transform="translate(64,312)"/>
<path d="M0 0 C0.66 0 1.32 0 2 0 C4.47045803 3.81615468 4.43831912 7.84744248 4.625 12.25 C4.66367188 12.99507812 4.70234375 13.74015625 4.7421875 14.5078125 C4.83605108 16.3381524 4.91909718 18.16904143 5 20 C4.01 20.33 3.02 20.66 2 21 C2.33 19.02 2.66 17.04 3 15 C2.34 15 1.68 15 1 15 C1 17.31 1 19.62 1 22 C0.67 22 0.34 22 0 22 C0 14.74 0 7.48 0 0 Z " fill="#548FFC" transform="translate(214,190)"/>
<path d="M0 0 C1.32 0.66 2.64 1.32 4 2 C3.67 2.99 3.34 3.98 3 5 C3.66 5 4.32 5 5 5 C7.26647307 9.53294613 7.3948217 13.0252466 7 18 C5.5 20.5 5.5 20.5 4 22 C3.87625 20.081875 3.87625 20.081875 3.75 18.125 C3.25343942 13.37005627 1.73119594 9.48501188 -0.2578125 5.1640625 C-1 3 -1 3 0 0 Z " fill="#2D3E50" transform="translate(281,98)"/>
<path d="M0 0 C2.6015625 0.2421875 2.6015625 0.2421875 5.625 0.875 C6.62789062 1.07867187 7.63078125 1.28234375 8.6640625 1.4921875 C9.43492187 1.65976562 10.20578125 1.82734375 11 2 C10.67 3.65 10.34 5.3 10 7 C7.08517222 7.80967438 5.53886783 8.21845993 2.6875 7.0625 C2.130625 6.711875 1.57375 6.36125 1 6 C0.01 6.99 -0.98 7.98 -2 9 C-2.125 5.625 -2.125 5.625 -2 2 C-1.34 1.34 -0.68 0.68 0 0 Z " fill="#455463" transform="translate(236,323)"/>
<path d="M0 0 C2 1.5 2 1.5 3 3 C2.01 3.495 2.01 3.495 1 4 C1 5.98 1 7.96 1 10 C-2.63 10.33 -6.26 10.66 -10 11 C-7 8 -7 8 -3.3125 7.8125 C-1.6728125 7.9053125 -1.6728125 7.9053125 0 8 C-0.66 6.68 -1.32 5.36 -2 4 C-4.97 4 -7.94 4 -11 4 C-11 3.01 -11 2.02 -11 1 C-7.26274081 -0.24575306 -3.91147543 -0.48893443 0 0 Z " fill="#71A0F9" transform="translate(150,313)"/>
<path d="M0 0 C0.94875 0.04125 1.8975 0.0825 2.875 0.125 C3.125 5.75 3.125 5.75 0.875 9.125 C-1.6875 9.375 -1.6875 9.375 -4.125 9.125 C-5.125 8.125 -5.125 8.125 -5.3125 5.1875 C-5.05118602 0.91937161 -4.27244616 0.17089785 0 0 Z " fill="#E2EDFA" transform="translate(147.125,323.875)"/>
<path d="M0 0 C0.33 0 0.66 0 1 0 C1 4.62 1 9.24 1 14 C-0.98 14 -2.96 14 -5 14 C-5 10.04 -5 6.08 -5 2 C-4.01 2 -3.02 2 -2 2 C-1.34 1.34 -0.68 0.68 0 0 Z " fill="#324455" transform="translate(204,321)"/>
<path d="M0 0 C0.66 0 1.32 0 2 0 C2 0.99 2 1.98 2 3 C2.66 3 3.32 3 4 3 C3.67 8.94 3.34 14.88 3 21 C2.01 21 1.02 21 0 21 C0 14.07 0 7.14 0 0 Z " fill="#4685FC" transform="translate(100,314)"/>
<path d="M0 0 C0.33 0 0.66 0 1 0 C1.33 3.96 1.66 7.92 2 12 C2.33 12 2.66 12 3 12 C3 16.29 3 20.58 3 25 C1.68 25 0.36 25 -1 25 C-1.15392039 16.61988971 -0.68271293 8.35104207 0 0 Z " fill="#6197FC" transform="translate(41,310)"/>
<path d="M0 0 C0.33 0.66 0.66 1.32 1 2 C1.5775 2.103125 2.155 2.20625 2.75 2.3125 C6.03513837 3.31629228 7.71052302 5.51973328 10 8 C9.34 9.65 8.68 11.3 8 13 C2.97521239 10.62718363 1.27675783 7.9037861 -1 3 C-0.67 2.01 -0.34 1.02 0 0 Z " fill="#364556" transform="translate(140,182)"/>
<path d="M0 0 C1.32 0 2.64 0 4 0 C3.54300722 5.02692063 1.00758252 8.14896261 -2 12 C-4.475 11.01 -4.475 11.01 -7 10 C-6.8125 8.125 -6.8125 8.125 -6 6 C-4.33333333 5.33333333 -2.66666667 4.66666667 -1 4 C-0.11306697 1.95894361 -0.11306697 1.95894361 0 0 Z " fill="#2F3F52" transform="translate(201,86)"/>
<path d="M0 0 C1.32 0 2.64 0 4 0 C4.33 5.28 4.66 10.56 5 16 C5.33 11.05 5.66 6.1 6 1 C6.33 1 6.66 1 7 1 C7.33 5.62 7.66 10.24 8 15 C9.32 15.33 10.64 15.66 12 16 C12 16.99 12 17.98 12 19 C9.03 18.67 6.06 18.34 3 18 C3 12.39 3 6.78 3 1 C2.01 0.67 1.02 0.34 0 0 Z " fill="#6A9BFA" transform="translate(122,316)"/>
<path d="M0 0 C1.32 0.33 2.64 0.66 4 1 C3.34 3.64 2.68 6.28 2 9 C1.34 9 0.68 9 0 9 C-0.33 9.99 -0.66 10.98 -1 12 C-2.32 12 -3.64 12 -5 12 C-4.74337755 10.55989519 -4.46909179 9.1229313 -4.1875 7.6875 C-4.03667969 6.88699219 -3.88585937 6.08648437 -3.73046875 5.26171875 C-2.90183347 2.69605123 -2.22884544 1.52226507 0 0 Z " fill="#3C4B5A" transform="translate(70,149)"/>
<path d="M0 0 C0.93423645 3.01031744 1.04449911 3.86650268 0 7 C-2.97 6.67 -5.94 6.34 -9 6 C-9.33 4.68 -9.66 3.36 -10 2 C-6.5980513 -0.09350689 -3.94727588 -0.17942163 0 0 Z " fill="#3A4959" transform="translate(304,313)"/>
<path d="M0 0 C0.33 0 0.66 0 1 0 C1.33 7.59 1.66 15.18 2 23 C2.33 21.35 2.66 19.7 3 18 C3.33 18 3.66 18 4 18 C4.45572917 19.98567708 4.91145833 21.97135417 5.3671875 23.95703125 C5.98007723 26.27742974 5.98007723 26.27742974 8 29 C7.01 29 6.02 29 5 29 C5 28.34 5 27.68 5 27 C1.9254644 27.7763932 1.9254644 27.7763932 0 30 C0 20.1 0 10.2 0 0 Z " fill="#E6EAED" transform="translate(206,305)"/>
<path d="M0 0 C-0.33 0.99 -0.66 1.98 -1 3 C0.32 3.66 1.64 4.32 3 5 C1.37828761 5.38897161 -0.24754925 5.76078298 -1.875 6.125 C-2.77992188 6.33382812 -3.68484375 6.54265625 -4.6171875 6.7578125 C-5.40351563 6.83773437 -6.18984375 6.91765625 -7 7 C-7.66 6.34 -8.32 5.68 -9 5 C-9 4.67 -9 4.34 -9 4 C-11.64 4 -14.28 4 -17 4 C-14.0112778 2.34961512 -11.28632562 1.5114284 -7.9375 0.875 C-6.65166016 0.62363281 -6.65166016 0.62363281 -5.33984375 0.3671875 C-3 0 -3 0 0 0 Z " fill="#4E5C6B" transform="translate(185,248)"/>
<path d="M0 0 C2 1 2 1 2 1 Z M-1 1 C-0.67 1.66 -0.34 2.32 0 3 C0.66 3 1.32 3 2 3 C0.33784287 6.60134046 -1.56224165 9.86573927 -4 13 C-6.75 13.875 -6.75 13.875 -9 14 C-9 13.01 -9 12.02 -9 11 C-8.360625 10.54625 -7.72125 10.0925 -7.0625 9.625 C-4.43508131 7.55491254 -4.5738347 6.19707902 -4 3 C-3.01 2.34 -2.02 1.68 -1 1 Z " fill="#314153" transform="translate(100,70)"/>
<path d="M0 0 C1.4540625 0.0309375 1.4540625 0.0309375 2.9375 0.0625 C3.5975 2.0425 4.2575 4.0225 4.9375 6.0625 C1.6375 6.0625 -1.6625 6.0625 -5.0625 6.0625 C-3.98897059 0.08140756 -3.98897059 0.08140756 0 0 Z " fill="#E5EEFA" transform="translate(85.0625,315.9375)"/>
<path d="M0 0 C0.33 0 0.66 0 1 0 C1.144375 0.928125 1.28875 1.85625 1.4375 2.8125 C1.92100111 6.00725111 1.92100111 6.00725111 3 9 C0.38826365 11.61173635 -0.87198888 11.2981789 -4.5 11.3125 C-5.4796875 11.32925781 -6.459375 11.34601563 -7.46875 11.36328125 C-8.72171875 11.18345703 -8.72171875 11.18345703 -10 11 C-10.66 10.01 -11.32 9.02 -12 8 C-11.01 8 -10.02 8 -9 8 C-9 6.35 -9 4.7 -9 3 C-8.67 3 -8.34 3 -8 3 C-7.67 4.65 -7.34 6.3 -7 8 C-5.35 8.33 -3.7 8.66 -2 9 C-1.34 6.03 -0.68 3.06 0 0 Z " fill="#6097FA" transform="translate(150,324)"/>
<path d="M0 0 C0.08121924 1.60332791 0.13929134 3.20784026 0.1875 4.8125 C0.22230469 5.70582031 0.25710938 6.59914063 0.29296875 7.51953125 C0 10 0 10 -1.38671875 11.82421875 C-3 13 -3 13 -5 13 C-5.10824843 11.3973218 -5.18570645 9.79254252 -5.25 8.1875 C-5.29640625 7.29417969 -5.3428125 6.40085937 -5.390625 5.48046875 C-5 3 -5 3 -3.046875 1.17578125 C-1 0 -1 0 0 0 Z " fill="#2A3C4E" transform="translate(278,319)"/>
<path d="M0 0 C1.50433594 0.01353516 1.50433594 0.01353516 3.0390625 0.02734375 C3.80992187 0.03894531 4.58078125 0.05054688 5.375 0.0625 C5.375 1.3825 5.375 2.7025 5.375 4.0625 C1.415 4.0625 -2.545 4.0625 -6.625 4.0625 C-6.955 3.0725 -7.285 2.0825 -7.625 1.0625 C-4.98041621 -0.25979189 -2.94738699 -0.03427194 0 0 Z " fill="#2A3A4B" transform="translate(223.625,330.9375)"/>
<path d="M0 0 C2.87436167 2.87436167 2.96762555 5.00027708 3.09765625 9.015625 C3.08605469 10.08296875 3.07445313 11.1503125 3.0625 12.25 C3.05347656 13.32765625 3.04445313 14.4053125 3.03515625 15.515625 C3.02355469 16.33546875 3.01195313 17.1553125 3 18 C2.01 18 1.02 18 0 18 C0 12.06 0 6.12 0 0 Z " fill="#4483FB" transform="translate(67,317)"/>
<path d="M0 0 C0 3 0 3 -1.3125 4.5 C-1.869375 4.995 -2.42625 5.49 -3 6 C-3.515625 6.556875 -4.03125 7.11375 -4.5625 7.6875 C-6 9 -6 9 -8 9 C-8.28875 9.94875 -8.5775 10.8975 -8.875 11.875 C-10 15 -10 15 -12 17 C-15.125 17.125 -15.125 17.125 -18 17 C-17.67 16.34 -17.34 15.68 -17 15 C-15.02 15.495 -15.02 15.495 -13 16 C-12.75121094 15.27167969 -12.50242188 14.54335937 -12.24609375 13.79296875 C-10.88674967 10.74616305 -9.30437036 8.77146023 -7.0625 6.3125 C-6.37285156 5.54550781 -5.68320313 4.77851562 -4.97265625 3.98828125 C-3 2 -3 2 0 0 Z " fill="#CBD2D6" transform="translate(212,83)"/>
<path d="M0 0 C0.66 0.33 1.32 0.66 2 1 C3.87056791 1.2275015 5.74685958 1.40962811 7.625 1.5625 C8.62789062 1.64628906 9.63078125 1.73007812 10.6640625 1.81640625 C11.43492188 1.87699219 12.20578125 1.93757813 13 2 C12.67 2.99 12.34 3.98 12 5 C10.04233719 5.08082094 8.08373272 5.13910778 6.125 5.1875 C4.48917969 5.23970703 4.48917969 5.23970703 2.8203125 5.29296875 C1.88960938 5.19628906 0.95890625 5.09960938 0 5 C-0.66 4.01 -1.32 3.02 -2 2 C-1.34 2 -0.68 2 0 2 C0 1.34 0 0.68 0 0 Z " fill="#5E94F9" transform="translate(80,330)"/>
<path d="M0 0 C0.99 0.33 1.98 0.66 3 1 C3.73046875 2.84765625 3.73046875 2.84765625 4.1875 5.0625 C4.34605469 5.79597656 4.50460938 6.52945312 4.66796875 7.28515625 C4.77753906 7.85105469 4.88710938 8.41695313 5 9 C4.34 8.67 3.68 8.34 3 8 C3 7.34 3 6.68 3 6 C2.34 6 1.68 6 1 6 C1 11.61 1 17.22 1 23 C-0.65 23 -2.3 23 -4 23 C-2.68 22.67 -1.36 22.34 0 22 C0 14.74 0 7.48 0 0 Z " fill="#C4D8FC" transform="translate(44,313)"/>
<path d="M0 0 C1.32 0.66 2.64 1.32 4 2 C3.67 4.31 3.34 6.62 3 9 C1.35 9 -0.3 9 -2 9 C-1.125 2.25 -1.125 2.25 0 0 Z " fill="#475462" transform="translate(280,140)"/>
<path d="M0 0 C2.0625 0.4375 2.0625 0.4375 4 1 C3.125 6.875 3.125 6.875 2 8 C1.67 8.99 1.34 9.98 1 11 C0.01 11.33 -0.98 11.66 -2 12 C-1.85962479 10.18706911 -1.71255111 8.3746557 -1.5625 6.5625 C-1.48128906 5.55316406 -1.40007812 4.54382813 -1.31640625 3.50390625 C-1 1 -1 1 0 0 Z " fill="#364556" transform="translate(81,119)"/>
<path d="M0 0 C4.95 0 9.9 0 15 0 C14.67 0.99 14.34 1.98 14 3 C12.22925083 3.02705729 10.45838289 3.04642195 8.6875 3.0625 C7.70136719 3.07410156 6.71523437 3.08570313 5.69921875 3.09765625 C3 3 3 3 0 2 C0 1.34 0 0.68 0 0 Z " fill="#EFF2F4" transform="translate(217,327)"/>
<path d="M0 0 C1.375 2.0625 1.375 2.0625 2 4 C1.01 3.67 0.02 3.34 -1 3 C-0.67 4.98 -0.34 6.96 0 9 C-1.15224028 8.07038578 -2.29659176 7.1309875 -3.4375 6.1875 C-4.39462891 5.40439453 -4.39462891 5.40439453 -5.37109375 4.60546875 C-7 3 -7 3 -8 0 C-5.04063954 -1.47968023 -3.13239866 -0.84835797 0 0 Z " fill="#42505F" transform="translate(141,180)"/>
<path d="M0 0 C0.33 0.66 0.66 1.32 1 2 C2.76826954 4.17282569 2.76826954 4.17282569 4.98046875 4.265625 C6.98888143 4.25140615 8.99584122 4.13142025 11 4 C11.33 4.99 11.66 5.98 12 7 C10.3603125 7.2165625 10.3603125 7.2165625 8.6875 7.4375 C5.06877013 7.88288104 5.06877013 7.88288104 2 9 C0.14223235 5.86501708 -0.20140476 3.62528568 0 0 Z " fill="#CACFD4" transform="translate(235,314)"/>
<path d="M0 0 C2.64 0 5.28 0 8 0 C8.33 2.97 8.66 5.94 9 9 C11.31 9 13.62 9 16 9 C16 9.33 16 9.66 16 10 C12.7 10.66 9.4 11.32 6 12 C6 8.37 6 4.74 6 1 C4.02 1 2.04 1 0 1 C0 0.67 0 0.34 0 0 Z " fill="#AAB2BA" transform="translate(288,303)"/>
<path d="M0 0 C2.74148672 0.37047118 4.58593199 0.68587944 6.8125 2.375 C8 4 8 4 8 7 C6.02 7 4.04 7 2 7 C0.5393715 4.35261084 0 3.10551666 0 0 Z " fill="#354555" transform="translate(265,78)"/>
<path d="M0 0 C0 0.66 0 1.32 0 2 C2.97 2.495 2.97 2.495 6 3 C3.40517871 5.59482129 1.60116375 5.69990302 -2 6 C-2.66 5.34 -3.32 4.68 -4 4 C-6.60280568 4.32041397 -6.60280568 4.32041397 -9 5 C-6.45523312 2.20075644 -3.92372883 0 0 0 Z " fill="#4D5967" transform="translate(135,73)"/>
<path d="M0 0 C0 0.66 0 1.32 0 2 C-2.64 2.33 -5.28 2.66 -8 3 C-7.67 4.98 -7.34 6.96 -7 9 C-7.99 9.495 -7.99 9.495 -9 10 C-9 9.34 -9 8.68 -9 8 C-10.65 7.67 -12.3 7.34 -14 7 C-9.53539727 2.15271704 -6.66016176 0 0 0 Z " fill="#435261" transform="translate(118,59)"/>
<path d="M0 0 C1.32 0.33 2.64 0.66 4 1 C4 2.65 4 4.3 4 6 C0.04 6 -3.92 6 -8 6 C-8.33 5.34 -8.66 4.68 -9 4 C-6.03 4 -3.06 4 0 4 C0 2.68 0 1.36 0 0 Z " fill="#283A4E" transform="translate(226,319)"/>
<path d="M0 0 C-0.33 0.66 -0.66 1.32 -1 2 C0.32 2.66 1.64 3.32 3 4 C0.69 4.66 -1.62 5.32 -4 6 C-4.33 5.34 -4.66 4.68 -5 4 C-6.98 4.33 -8.96 4.66 -11 5 C-8.10998474 1.78887193 -4.47884754 -2.23942377 0 0 Z " fill="#4F5B69" transform="translate(220,74)"/>
<path d="M0 0 C1.68426809 3.25530808 2.88786134 6.50470706 4 10 C2.35 11.32 0.7 12.64 -1 14 C-2.59789351 9.04653013 -1.28306814 4.86717585 0 0 Z " fill="#415061" transform="translate(110,132)"/>
<path d="M0 0 C0.12375 0.61875 0.2475 1.2375 0.375 1.875 C0.87197356 4.19120832 0.87197356 4.19120832 3 6 C-0.13498292 7.85776765 -2.37471432 8.20140476 -6 8 C-6.33 7.34 -6.66 6.68 -7 6 C-6.34 6 -5.68 6 -5 6 C-5 5.34 -5 4.68 -5 4 C-3.37373596 2.61767557 -1.7074998 1.28062485 0 0 Z " fill="#455361" transform="translate(190,244)"/>
<path d="M0 0 C0 0.99 0 1.98 0 3 C-4.455 4.485 -4.455 4.485 -9 6 C-9.33 4.35 -9.66 2.7 -10 1 C-6.59437148 0.22157062 -3.49234244 -0.09978121 0 0 Z " fill="#364555" transform="translate(120,61)"/>
<path d="M0 0 C3.3 0 6.6 0 10 0 C10 0.33 10 0.66 10 1 C8.02 1 6.04 1 4 1 C3.67 2.98 3.34 4.96 3 7 C2.01 7 1.02 7 0 7 C-1 4 -1 4 0 0 Z " fill="#E9F4FA" transform="translate(59,304)"/>
<path d="M0 0 C1.32 0.33 2.64 0.66 4 1 C3.6875 3.375 3.6875 3.375 3 6 C2.01 6.66 1.02 7.32 0 8 C-0.66 8.99 -1.32 9.98 -2 11 C-1.85892253 9.54119891 -1.71197585 8.08296449 -1.5625 6.625 C-1.48128906 5.81289062 -1.40007813 5.00078125 -1.31640625 4.1640625 C-1 2 -1 2 0 0 Z " fill="#2E3E4F" transform="translate(62,164)"/>
<path d="M0 0 C1.2065625 0.0309375 1.2065625 0.0309375 2.4375 0.0625 C2.1075 1.7125 1.7775 3.3625 1.4375 5.0625 C-0.2125 5.3925 -1.8625 5.7225 -3.5625 6.0625 C-3.605221 4.39638095 -3.60313832 2.72867115 -3.5625 1.0625 C-2.5625 0.0625 -2.5625 0.0625 0 0 Z " fill="#D3D7DA" transform="translate(244.5625,324.9375)"/>
<path d="M0 0 C0 0.66 0 1.32 0 2 C-6.625 5 -6.625 5 -10 5 C-10 3.68 -10 2.36 -10 1 C-6.78548731 -0.60725635 -3.56387464 -0.05748185 0 0 Z " fill="#F8FBFB" transform="translate(147,319)"/>
<path d="M0 0 C4 1 4 1 5.25 3.0625 C5.4975 3.701875 5.745 4.34125 6 5 C5.38125 5.268125 4.7625 5.53625 4.125 5.8125 C1.7004767 6.95556848 1.7004767 6.95556848 0 10 C0 6.7 0 3.4 0 0 Z " fill="#4D5C6B" transform="translate(210,319)"/>
<path d="M0 0 C2 2 2 2 2 5 C1.01 5 0.02 5 -1 5 C-1 4.34 -1 3.68 -1 3 C-1.94875 3.04125 -2.8975 3.0825 -3.875 3.125 C-7 3 -7 3 -9 1 C-5.75778445 -0.08073852 -3.39597063 -0.21676408 0 0 Z " fill="#E3EDF9" transform="translate(148,316)"/>
<path d="M0 0 C-1.36911804 3.1489715 -2.8752136 5.0478487 -5.5 7.25 C-6.41265625 8.03117187 -6.41265625 8.03117187 -7.34375 8.828125 C-9 10 -9 10 -11 10 C-9.63088196 6.8510285 -8.1247864 4.9521513 -5.5 2.75 C-4.8915625 2.22921875 -4.283125 1.7084375 -3.65625 1.171875 C-2 0 -2 0 0 0 Z " fill="#D7DBDF" transform="translate(146,99)"/>
<path d="M0 0 C2.64 0 5.28 0 8 0 C8.33 1.65 8.66 3.3 9 5 C4.545 5.495 4.545 5.495 0 6 C1.65 4.35 3.3 2.7 5 1 C3.35 1 1.7 1 0 1 C0 0.67 0 0.34 0 0 Z " fill="#4B5966" transform="translate(148,92)"/>
<path d="M0 0 C1.98 0.99 3.96 1.98 6 3 C5.67 5.31 5.34 7.62 5 10 C2.5 8.9375 2.5 8.9375 0 7 C-0.3125 3.3125 -0.3125 3.3125 0 0 Z " fill="#4A5866" transform="translate(261,74)"/>
<path d="M0 0 C2 1.3125 2 1.3125 4 3 C4 3.99 4 4.98 4 6 C3.01 6.495 3.01 6.495 2 7 C1.67 7.66 1.34 8.32 1 9 C-0.5625 7.75 -0.5625 7.75 -2 6 C-1.7181953 3.67511119 -1.04553582 2.09107165 0 0 Z " fill="#414F5E" transform="translate(150,190)"/>
<path d="M0 0 C1.32 0 2.64 0 4 0 C4 0.66 4 1.32 4 2 C4.99 2.33 5.98 2.66 7 3 C5.68 4.32 4.36 5.64 3 7 C1.68 6.34 0.36 5.68 -1 5 C-0.67 3.35 -0.34 1.7 0 0 Z " fill="#455361" transform="translate(178,76)"/>
<path d="M0 0 C1.9375 0.6875 1.9375 0.6875 4 2 C4.75 4.625 4.75 4.625 5 7 C4.01 7.33 3.02 7.66 2 8 C2 7.34 2 6.68 2 6 C1.34 6 0.68 6 0 6 C0 4.02 0 2.04 0 0 Z " fill="#303F51" transform="translate(114,149)"/>
<path d="M0 0 C0.99 0 1.98 0 3 0 C3 0.66 3 1.32 3 2 C4.65 2 6.3 2 8 2 C7.67 2.99 7.34 3.98 7 5 C3.7 5 0.4 5 -3 5 C-1.6875 2.5 -1.6875 2.5 0 0 Z " fill="#CFD4D6" transform="translate(149,88)"/>
<path d="M0 0 C3.375 -0.125 3.375 -0.125 7 0 C7.66 0.66 8.32 1.32 9 2 C8.67 2.33 8.34 2.66 8 3 C8.66 3.66 9.32 4.32 10 5 C6.37 4.34 2.74 3.68 -1 3 C-0.67 2.01 -0.34 1.02 0 0 Z " fill="#2A3B4C" transform="translate(172,57)"/>
<path d="M0 0 C2.7972908 2.06756277 3.02692273 3.14440371 3.6875 6.6875 C3.790625 7.780625 3.89375 8.87375 4 10 C3.01 10 2.02 10 1 10 C-0.1577506 6.52674819 -0.06866652 3.63932552 0 0 Z " fill="#4A86FB" transform="translate(47,310)"/>
<path d="M0 0 C1.65 0 3.3 0 5 0 C4.625 2.4375 4.625 2.4375 4 5 C3.01 5.495 3.01 5.495 2 6 C1.34 7.32 0.68 8.64 0 10 C0 6.7 0 3.4 0 0 Z " fill="#2A3B4C" transform="translate(200,306)"/>
<path d="M0 0 C0.99 0.33 1.98 0.66 3 1 C-3.27087737 4.71607548 -7.75460274 5.53449652 -15 5 C-12.14621311 3.44279665 -9.5586734 2.57104036 -6.375 1.9375 C-4.01809665 1.46377026 -2.15343684 1.07671842 0 0 Z " fill="#737D87" transform="translate(165,252)"/>
<path d="M0 0 C0.33 0 0.66 0 1 0 C0.67 2.97 0.34 5.94 0 9 C-0.66 9 -1.32 9 -2 9 C-2 11.31 -2 13.62 -2 16 C-2.33 16 -2.66 16 -3 16 C-3.19361753 10.48190035 -2.81170643 6.22197736 -1 1 C-0.67 0.67 -0.34 0.34 0 0 Z " fill="#3A4A5B" transform="translate(83,182)"/>
<path d="M0 0 C1 2 1 2 1 6 C-0.65 6.66 -2.3 7.32 -4 8 C-4 8.99 -4 9.98 -4 11 C-4.99 11.33 -5.98 11.66 -7 12 C-5.44298069 7.32894208 -2.91552627 3.91294315 0 0 Z " fill="#5D6975" transform="translate(95,73)"/>
<path d="M0 0 C1.64826111 2.96687001 2.44271087 5.65626525 3 9 C1.68 9.33 0.36 9.66 -1 10 C-2.15837626 5.94568308 -1.83691257 3.78187881 0 0 Z " fill="#689AFC" transform="translate(51,316)"/>
<path d="M0 0 C-0.99 2.64 -1.98 5.28 -3 8 C-4.54571278 5.68143083 -5.79618552 3.49361571 -7 1 C-3.375 -1.125 -3.375 -1.125 0 0 Z " fill="#3B4858" transform="translate(95,84)"/>
<path d="M0 0 C0 0.66 0 1.32 0 2 C-6.625 4 -6.625 4 -10 4 C-7.19291889 -0.21062166 -4.92322234 -1.75829369 0 0 Z " fill="#2F3E51" transform="translate(216,78)"/>
<path d="M0 0 C1.98 0 3.96 0 6 0 C6 1.32 6 2.64 6 4 C4.02 4 2.04 4 0 4 C0 2.68 0 1.36 0 0 Z " fill="#2D3B4D" transform="translate(277,331)"/>
<path d="M0 0 C3.79588866 0.54226981 5.47211993 2.20127563 8 5 C2.25 5.125 2.25 5.125 0 4 C0 2.68 0 1.36 0 0 Z " fill="#FCFAFB" transform="translate(81,326)"/>
<path d="M0 0 C0.33 0 0.66 0 1 0 C1.65867457 3.35858814 2.1465164 6.57256278 2 10 C-0.4375 13.125 -0.4375 13.125 -3 15 C-3.33 14.34 -3.66 13.68 -4 13 C-3.34 13 -2.68 13 -2 13 C-1.34 8.71 -0.68 4.42 0 0 Z " fill="#5C6774" transform="translate(195,229)"/>
<path d="M0 0 C2.64 0 5.28 0 8 0 C8 1.32 8 2.64 8 4 C5.36 3.67 2.72 3.34 0 3 C0 2.01 0 1.02 0 0 Z " fill="#364557" transform="translate(221,331)"/>
<path d="M0 0 C0.66 0 1.32 0 2 0 C2 1.32 2 2.64 2 4 C2.99 4 3.98 4 5 4 C4.67 5.98 4.34 7.96 4 10 C3.34 10 2.68 10 2 10 C1.34 6.7 0.68 3.4 0 0 Z " fill="#DBE7FB" transform="translate(52,318)"/>
<path d="M0 0 C1.32 0 2.64 0 4 0 C4 3.3 4 6.6 4 10 C3.67 10 3.34 10 3 10 C3 7.69 3 5.38 3 3 C2.01 3 1.02 3 0 3 C-0.33 3.66 -0.66 4.32 -1 5 C-0.67 3.35 -0.34 1.7 0 0 Z " fill="#3E81FA" transform="translate(64,306)"/>
<path d="M0 0 C1.32 1.32 2.64 2.64 4 4 C3.01 4.99 2.02 5.98 1 7 C1.33 7.66 1.66 8.32 2 9 C1.01 8.67 0.02 8.34 -1 8 C-1.33 7.01 -1.66 6.02 -2 5 C-1.34 5 -0.68 5 0 5 C-0.33 4.01 -0.66 3.02 -1 2 C-0.67 1.34 -0.34 0.68 0 0 Z " fill="#505F6C" transform="translate(89,214)"/>
<path d="M0 0 C4.455 0.99 4.455 0.99 9 2 C9.33 3.65 9.66 5.3 10 7 C7.525 6.01 7.525 6.01 5 5 C5 4.34 5 3.68 5 3 C2.525 2.01 2.525 2.01 0 1 C0 0.67 0 0.34 0 0 Z " fill="#CFD4D9" transform="translate(172,207)"/>
<path d="M0 0 C0.66 0 1.32 0 2 0 C2.33 1.98 2.66 3.96 3 6 C1.35 6.33 -0.3 6.66 -2 7 C-1.34 4.69 -0.68 2.38 0 0 Z " fill="#2D3E4D" transform="translate(67,154)"/>
<path d="M0 0 C0.66 0 1.32 0 2 0 C2.33 1.98 2.66 3.96 3 6 C1.35 6.33 -0.3 6.66 -2 7 C-1.34 4.69 -0.68 2.38 0 0 Z " fill="#2D3D4D" transform="translate(77,134)"/>
<path d="M0 0 C0.75 1.75 0.75 1.75 1 4 C-1.21867135 6.77333918 -2.60620325 7.86873442 -6 9 C-4.47291037 5.56404834 -2.40072955 2.88087546 0 0 Z " fill="#CED2D6" transform="translate(102,74)"/>
<path d="M0 0 C2.31 0.33 4.62 0.66 7 1 C6.67 2.32 6.34 3.64 6 5 C4.125 4.75 4.125 4.75 2 4 C0.75 1.9375 0.75 1.9375 0 0 Z " fill="#2E3E51" transform="translate(167,72)"/>
<path d="M0 0 C0 0.66 0 1.32 0 2 C-6.625 3.25 -6.625 3.25 -10 1 C-6.78548731 -0.60725635 -3.56387464 -0.05748185 0 0 Z " fill="#2A3B4E" transform="translate(247,322)"/>
<path d="M0 0 C2.01920337 1.30406884 4.01924973 2.63823419 6 4 C6 4.33 6 4.66 6 5 C4.02 5 2.04 5 0 5 C-0.33 5.66 -0.66 6.32 -1 7 C-1.99 6.01 -2.98 5.02 -4 4 C-2.68 3.34 -1.36 2.68 0 2 C0 1.34 0 0.68 0 0 Z " fill="#485564" transform="translate(166,203)"/>
<path d="M0 0 C2 0.25 2 0.25 4 1 C4.33 1.99 4.66 2.98 5 4 C3.35 4.33 1.7 4.66 0 5 C-0.5625 3.0625 -0.5625 3.0625 -1 1 C-0.67 0.67 -0.34 0.34 0 0 Z " fill="#2F3F52" transform="translate(162,202)"/>
<path d="M0 0 C0.66 0.33 1.32 0.66 2 1 C-0.875 5.875 -0.875 5.875 -2 7 C-3.99958364 7.04080783 -6.00045254 7.04254356 -8 7 C-7.67 6.34 -7.34 5.68 -7 5 C-5.02 5.495 -5.02 5.495 -3 6 C-2.690625 5.195625 -2.38125 4.39125 -2.0625 3.5625 C-1 1 -1 1 0 0 Z " fill="#C1C7CD" transform="translate(202,93)"/>
<path d="M0 0 C0 0.99 0 1.98 0 3 C-3.38023517 3 -5.83468937 2.12544378 -9 1 C-9 0.67 -9 0.34 -9 0 C-5.62182575 -0.84454356 -3.32534757 -1.10844919 0 0 Z " fill="#6097FA" transform="translate(92,315)"/>
<path d="M0 0 C1.32 0 2.64 0 4 0 C3.67 2.31 3.34 4.62 3 7 C2.01 6.34 1.02 5.68 0 5 C-0.1875 2.375 -0.1875 2.375 0 0 Z " fill="#324253" transform="translate(282,134)"/>
<path d="M0 0 C1.485 0.99 1.485 0.99 3 2 C2.67 3.65 2.34 5.3 2 7 C1.01 7 0.02 7 -1 7 C-0.67 4.69 -0.34 2.38 0 0 Z " fill="#2A3C4F" transform="translate(128,113)"/>
<path d="M0 0 C1.98 0 3.96 0 6 0 C5.3125 1.9375 5.3125 1.9375 4 4 C1.375 4.75 1.375 4.75 -1 5 C-0.67 3.35 -0.34 1.7 0 0 Z " fill="#2D3F50" transform="translate(147,93)"/>
<path d="M0 0 C0.66 0.33 1.32 0.66 2 1 C-0.31 3.31 -2.62 5.62 -5 8 C-5.99 7.67 -6.98 7.34 -8 7 C-5.36 4.69 -2.72 2.38 0 0 Z " fill="#D6DBDF" transform="translate(130,81)"/>
<path d="M0 0 C1.98 0.495 1.98 0.495 4 1 C4 2.32 4 3.64 4 5 C2.35 5.33 0.7 5.66 -1 6 C-0.34 5.67 0.32 5.34 1 5 C0.67 4.34 0.34 3.68 0 3 C0 2.01 0 1.02 0 0 Z " fill="#475562" transform="translate(132,262)"/>
<path d="M0 0 C0 3.15081975 -0.27898465 4.41847698 -2 7 C-4.125 7.75 -4.125 7.75 -6 8 C-6 7.34 -6 6.68 -6 6 C-5.34 6 -4.68 6 -4 6 C-4 4.35 -4 2.7 -4 1 C-2.68 0.67 -1.36 0.34 0 0 Z " fill="#DDE0E5" transform="translate(86,112)"/>
<path d="M0 0 C2.475 0.99 2.475 0.99 5 2 C4.67 2.99 4.34 3.98 4 5 C1.9375 5.6875 1.9375 5.6875 0 6 C0 4.02 0 2.04 0 0 Z " fill="#2E3F50" transform="translate(235,327)"/>
<path d="M0 0 C0 0.99 0 1.98 0 3 C-2.31 3 -4.62 3 -7 3 C-7 2.34 -7 1.68 -7 1 C-4.53721199 -0.231394 -2.7204945 -0.07159196 0 0 Z " fill="#508AF8" transform="translate(113,313)"/>
<path d="M0 0 C0.66 0.33 1.32 0.66 2 1 C2 2.65 2 4.3 2 6 C0.68 6 -0.64 6 -2 6 C-1.125 1.125 -1.125 1.125 0 0 Z " fill="#2E3E4F" transform="translate(132,104)"/>
<path d="M0 0 C0.33 0.66 0.66 1.32 1 2 C1.99 2 2.98 2 4 2 C4 2.66 4 3.32 4 4 C2.02 4 0.04 4 -2 4 C-2.33 3.01 -2.66 2.02 -3 1 C-2.01 0.67 -1.02 0.34 0 0 Z " fill="#525E6C" transform="translate(151,259)"/>
<path d="M0 0 C1.485 0.99 1.485 0.99 3 2 C2.67 3.65 2.34 5.3 2 7 C1.01 6.67 0.02 6.34 -1 6 C-0.67 4.02 -0.34 2.04 0 0 Z " fill="#2C3C4F" transform="translate(281,140)"/>
<path d="M0 0 C0.33 0 0.66 0 1 0 C0.67 3.3 0.34 6.6 0 10 C-2 8 -2 8 -2.25 5 C-2 2 -2 2 0 0 Z " fill="#2B394D" transform="translate(109,131)"/>
<path d="M0 0 C1.1875 1.5625 1.1875 1.5625 2 4 C0.625 7.75 0.625 7.75 -1 11 C-1.33 11 -1.66 11 -2 11 C-1.125 3.375 -1.125 3.375 0 0 Z " fill="#D0D6DD" transform="translate(134,109)"/>
<path d="M0 0 C0.66 0 1.32 0 2 0 C2 1.65 2 3.3 2 5 C0.68 5.33 -0.64 5.66 -2 6 C-1.125 1.125 -1.125 1.125 0 0 Z " fill="#2C3D4F" transform="translate(87,94)"/>
<path d="M0 0 C1.65 0 3.3 0 5 0 C5.33 0.99 5.66 1.98 6 3 C4.02 3 2.04 3 0 3 C0 2.01 0 1.02 0 0 Z " fill="#F1F2F5" transform="translate(218,318)"/>
<path d="M0 0 C0.99 0 1.98 0 3 0 C3.33 1.32 3.66 2.64 4 4 C2.35 4 0.7 4 -1 4 C-1.33 3.34 -1.66 2.68 -2 2 C-1.34 2 -0.68 2 0 2 C0 1.34 0 0.68 0 0 Z " fill="#2C3E51" transform="translate(185,248)"/>
<path d="M0 0 C1.98 0 3.96 0 6 0 C6 0.99 6 1.98 6 3 C4.35 3 2.7 3 1 3 C0.67 2.01 0.34 1.02 0 0 Z " fill="#314051" transform="translate(166,208)"/>
<path d="M0 0 C0.66 0 1.32 0 2 0 C2.33 1.32 2.66 2.64 3 4 C1.68 3.34 0.36 2.68 -1 2 C-0.67 1.34 -0.34 0.68 0 0 Z M-5 1 C-4.34 1 -3.68 1 -3 1 C-3 1.66 -3 2.32 -3 3 C-2.34 3.33 -1.68 3.66 -1 4 C-1.99 4 -2.98 4 -4 4 C-4.33 3.01 -4.66 2.02 -5 1 Z " fill="#586371" transform="translate(119,154)"/>
<path d="M0 0 C0.625 1.875 0.625 1.875 1 4 C0.34 4.66 -0.32 5.32 -1 6 C-2.32 6 -3.64 6 -5 6 C-5 5.34 -5 4.68 -5 4 C-4.01 3.67 -3.02 3.34 -2 3 C-1.34 2.01 -0.68 1.02 0 0 Z " fill="#566371" transform="translate(200,86)"/>
<path d="M0 0 C0.33 0.66 0.66 1.32 1 2 C1.66 2 2.32 2 3 2 C2.67 2.99 2.34 3.98 2 5 C0.68 4.67 -0.64 4.34 -2 4 C-2 3.01 -2 2.02 -2 1 C-1.34 0.67 -0.68 0.34 0 0 Z " fill="#2F3F4F" transform="translate(106,65)"/>
<path d="M0 0 C0 0.66 0 1.32 0 2 C-3.3 2.66 -6.6 3.32 -10 4 C-9 2 -9 2 -6.6875 0.875 C-4 0 -4 0 0 0 Z " fill="#525E6A" transform="translate(118,59)"/>
</svg>
